<svg width="497" height="303" viewBox="0 0 497 303" fill="none" xmlns="http://www.w3.org/2000/svg">
<path d="M23.5647 3.57311C20.8639 3.57311 18.2457 4.10167 15.7831 5.14411C13.4026 6.15173 11.264 7.59494 9.42657 9.43373C7.5892 11.2725 6.14705 13.4128 5.14021 15.795C4.09855 18.2596 3.5704 20.8797 3.5704 23.5825V279.417C3.5704 282.12 4.09855 284.74 5.14021 287.205C6.14705 289.587 7.5892 291.727 9.42657 293.566C11.264 295.405 13.4026 296.848 15.7831 297.856C18.2458 298.898 20.8639 299.427 23.5647 299.427H473.435C476.136 299.427 478.754 298.898 481.217 297.856C483.597 296.848 485.736 295.405 487.573 293.566C489.411 291.727 490.853 289.587 491.86 287.205C492.901 284.74 493.43 282.12 493.43 279.417V23.5825C493.43 20.8797 492.901 18.2596 491.86 15.795C490.853 13.4128 489.411 11.2725 487.573 9.43373C485.736 7.59494 483.597 6.15173 481.217 5.14411C478.754 4.10167 476.136 3.57311 473.435 3.57311H23.5647ZM23.5647 0H473.435C486.45 0 497 10.5582 497 23.5825V279.417C497 292.442 486.45 303 473.435 303H23.5647C10.5502 303 0 292.442 0 279.417V23.5825C0 10.5582 10.5502 0 23.5647 0Z" fill="#871932"/>
<mask id="mask0_4_148" style="mask-type:luminance" maskUnits="userSpaceOnUse" x="229" y="105" width="63" height="62">
<path d="M260.639 166.507C277.598 166.507 291.345 152.749 291.345 135.778C291.345 118.807 277.598 105.05 260.639 105.05C243.681 105.05 229.934 118.807 229.934 135.778C229.934 152.749 243.681 166.507 260.639 166.507Z" fill="white"/>
</mask>
<g mask="url(#mask0_4_148)">
<path d="M473.435 0.357315H23.5646C11.5362 0.357315 1.78519 10.1157 1.78519 22.1533V277.988C1.78519 290.026 11.5362 299.784 23.5646 299.784H473.435C485.464 299.784 495.215 290.026 495.215 277.988V22.1533C495.215 10.1157 485.464 0.357315 473.435 0.357315Z" stroke="#861A31" stroke-width="5"/>
</g>
<path d="M175.879 202.626H133.921C122.711 202.626 115.585 195.935 114.944 184.757L112.863 151.702C112.542 146.694 114.264 141.886 117.707 138.24C121.11 134.594 125.914 132.51 130.879 132.51C132.16 132.51 133.401 131.749 134.002 130.547L136.884 124.817C139.246 120.13 145.172 116.484 150.336 116.484H159.504C164.669 116.484 170.554 120.13 172.916 124.777L175.799 130.627C176.4 131.749 177.601 132.51 178.922 132.51C183.886 132.51 188.691 134.594 192.094 138.24C195.537 141.926 197.258 146.694 196.938 151.702L194.856 184.797C194.136 196.135 187.209 202.626 175.879 202.626ZM150.336 122.493C147.374 122.493 143.61 124.817 142.249 127.502L139.366 133.271C137.685 136.517 134.442 138.52 130.879 138.52C127.516 138.52 124.393 139.882 122.071 142.326C119.789 144.77 118.628 147.976 118.868 151.301L120.95 184.396C121.43 192.489 125.794 196.616 133.921 196.616H175.879C183.966 196.616 188.33 192.489 188.851 184.396L190.933 151.301C191.133 147.976 190.012 144.77 187.73 142.326C185.408 139.882 182.285 138.52 178.922 138.52C175.359 138.52 172.116 136.517 170.434 133.351L167.512 127.502C166.19 124.857 162.427 122.534 159.464 122.534H150.336V122.493Z" fill="#871932"/>
<path d="M160.907 146.533H148.896C147.255 146.533 145.893 145.171 145.893 143.528C145.893 141.886 147.255 140.523 148.896 140.523H160.907C162.548 140.523 163.91 141.886 163.91 143.528C163.91 145.171 162.548 146.533 160.907 146.533Z" fill="#871932"/>
<path d="M154.902 186.6C146.054 186.6 138.887 179.428 138.887 170.573C138.887 161.718 146.054 154.547 154.902 154.547C163.749 154.547 170.916 161.718 170.916 170.573C170.916 179.428 163.749 186.6 154.902 186.6ZM154.902 160.556C149.377 160.556 144.893 165.044 144.893 170.573C144.893 176.102 149.377 180.59 154.902 180.59C160.426 180.59 164.911 176.102 164.911 170.573C164.911 165.044 160.426 160.556 154.902 160.556Z" fill="#871932"/>
<path d="M365.285 150.279V168.833C365.285 184.295 358.748 190.48 342.405 190.48H322.794C306.451 190.48 299.914 184.295 299.914 168.833V149.248C300.186 134.868 306.505 128.89 321.704 128.632H342.405C358.748 128.632 365.285 134.817 365.285 150.279Z" stroke="#871932" stroke-width="7" stroke-linecap="round" stroke-linejoin="round"/>
<path d="M326.93 147.29C324.042 149.145 320.229 149.145 317.342 147.187" stroke="#871932" stroke-width="7" stroke-miterlimit="10" stroke-linecap="round" stroke-linejoin="round"/>
<path d="M348.72 147.29C345.833 149.145 342.019 149.145 339.132 147.187" stroke="#871932" stroke-width="7" stroke-miterlimit="10" stroke-linecap="round" stroke-linejoin="round"/>
<path d="M320.837 160.485H344.371C346.005 160.485 347.312 161.721 347.312 163.267C347.312 170.947 340.721 177.183 332.604 177.183C324.487 177.183 317.895 170.947 317.895 163.267C317.895 161.721 319.203 160.485 320.837 160.485Z" stroke="#871932" stroke-width="7" stroke-miterlimit="10" stroke-linecap="round" stroke-linejoin="round"/>
<path d="M279.545 161.129C280.521 160.152 280.521 158.569 279.545 157.593L263.635 141.683C262.659 140.707 261.076 140.707 260.1 141.683C259.123 142.659 259.123 144.242 260.1 145.219L274.242 159.361L260.1 173.503C259.123 174.479 259.123 176.062 260.1 177.039C261.076 178.015 262.659 178.015 263.635 177.039L279.545 161.129ZM219.223 161.861H277.777V156.861H219.223V161.861Z" fill="#871932"/>
</svg>
