<?xml version="1.0" encoding="utf-8"?>
<!-- Generator: Adobe Illustrator 27.8.0, SVG Export Plug-In . SVG Version: 6.00 Build 0)  -->
<svg version="1.1" id="Layer_1" xmlns="http://www.w3.org/2000/svg" xmlns:xlink="http://www.w3.org/1999/xlink" x="0px" y="0px"
	 viewBox="0 0 90.06 99.48" style="enable-background:new 0 0 90.06 99.48;" xml:space="preserve">
<style type="text/css">
	.st0{fill:#871933;}
	.st1{fill:#ECEAE9;}
</style>
<path class="st0" d="M26.75,99.29c-3.57,1.01-5.7-2.06-7.7-4.41c-2.52-2.95-4.09-6.48-5.39-10.34c-2.18-6.48-3.84-13.05-5.27-19.68
	c-0.53-2.45-2.03-4.83-1.37-7.52c0.04-0.17,0.08-0.41,0-0.53c-3.08-4.74-2.73-10.54-4.83-15.64C0.57,37.23,0.02,32.77,0,28.44
	c-0.03-4.78,0.47-9.58,1.71-14.22c0.87-3.23,3-5.75,5.4-8.13c3.84-3.82,8.77-5.34,13.74-5.68c3.31-0.23,6.93,0.32,10.23,2.33
	c4.03,2.45,7.59,5.62,11.88,7.62c2.23,1.04,4.28-0.38,6.33-0.87c2.77-0.66,5.24-2.21,7.57-3.89c3.72-2.67,8.06-4.21,12.35-5.22
	c7.25-1.7,12.27,2.54,16.62,7.77c3.37,4.04,3.17,9.01,3.76,13.74c0.92,7.41,0.52,14.92-1.17,22.07c-1.59,6.77-2.02,13.74-4.06,20.38
	c-0.55,1.79-1.71,3.39-2.4,5.23c-0.78,2.08-1.05,4.27-1.46,6.35c-0.66,3.3-2.54,6.06-3.29,9.25c-1.28,5.44-4.43,9.58-8.85,12.86
	c-0.43,0.32-0.77,0.84-1.39,0.7c-3.72-0.84-8.03-0.84-9.95-4.91c-1.09-2.32-1.25-5.06-2.04-7.57c-1.09-3.5-0.84-7.31-1.65-10.82
	c-0.65-2.83-0.3-6.18-2.86-8.49c-1.9-1.71-4.8-1.75-5.91,0.44c-1.87,3.69-3.8,7.44-4.91,11.39c-0.7,2.49-0.16,5.39-0.74,8.02
	c-1.01,4.62-2.27,9.24-6.61,11.97C30.87,99.65,28.95,99.37,26.75,99.29z M51.37,12.7c2.27,0.87,3.98,1.63,5.75,2.16
	c1.04,0.31,1.43,1.08,1.46,1.86c0.04,1.3-1.12,0.73-1.84,0.9c-2.02,0.47-3.87-0.48-5.81-0.67c-4.33-0.41-8.15-2.47-11.97-4.27
	c-3.73-1.76-6.68-4.83-10.29-6.91c-3.5-2.02-7.19-2.03-10.7-1.12c-2.95,0.76-5.71,2.17-8.31,4.36C6.17,11.95,5,15.73,4.28,19.47
	c-1.07,5.55-0.8,11.39,0.57,16.91c1.43,5.74,3.5,11.34,4.89,17.11c1.14,4.72,2.11,9.48,3.36,14.17c2.39,8.99,3.27,18.56,10.05,25.92
	c1.86,2.02,6.72,2.87,8.39,0.84c2.4-2.91,3.9-6.52,3.94-10.11c0.06-4.9,1.29-9.3,3.18-13.65c0.68-1.57,1.66-3,2.44-4.5
	c1.39-2.67,4.64-4.6,8.63-4.46c1.61,0.06,4.94,3.67,5.61,5.74c1.05,3.21,1.51,6.53,2,9.84c0.58,3.94,1.6,7.82,2.13,11.71
	c0.37,2.73,1.61,4.04,3.57,4.98c1.75,0.85,4.09,1.45,5.35-0.57c1.75-2.82,4.59-5.14,4.89-8.68c0.26-3.03,2.25-5.3,3.07-8.1
	c1.04-3.56,1.64-7.21,2.59-10.77c0.53-1.99,2.15-3.43,2.35-5.26c0.62-5.61,2.19-11.02,3.05-16.58c1.01-6.55,2.35-13,1.58-19.72
	c-0.41-3.57-0.54-7.3-1.4-10.67C82.59,5.95,72.1,2.37,64.84,5.8C60.45,7.88,56.8,11.34,51.37,12.7z"/>
<path class="st1" d="M51.37,12.7c5.43-1.36,9.08-4.83,13.47-6.9c7.26-3.43,17.75,0.15,19.7,7.8c0.86,3.36,0.99,7.1,1.4,10.67
	c0.77,6.71-0.57,13.17-1.58,19.72c-0.86,5.56-2.43,10.97-3.05,16.58c-0.2,1.83-1.82,3.27-2.35,5.26c-0.95,3.57-1.56,7.22-2.59,10.77
	c-0.82,2.8-2.81,5.07-3.07,8.1c-0.3,3.55-3.14,5.87-4.89,8.68c-1.26,2.03-3.6,1.42-5.35,0.57c-1.96-0.95-3.2-2.26-3.57-4.98
	c-0.53-3.89-1.55-7.77-2.13-11.71c-0.49-3.31-0.95-6.63-2-9.84c-0.68-2.07-4.01-5.69-5.61-5.74c-3.99-0.14-7.24,1.79-8.63,4.46
	c-0.78,1.5-1.76,2.94-2.44,4.5C36.78,75,35.54,79.4,35.48,84.3c-0.04,3.59-1.55,7.2-3.94,10.11c-1.67,2.04-6.53,1.18-8.39-0.84
	c-6.77-7.35-7.65-16.92-10.05-25.92c-1.25-4.69-2.22-9.45-3.36-14.17c-1.39-5.77-3.46-11.36-4.89-17.11
	c-1.38-5.52-1.64-11.36-0.57-16.91C5,15.73,6.17,11.95,9.66,9.01c2.6-2.19,5.36-3.6,8.31-4.36c3.51-0.9,7.2-0.9,10.7,1.12
	c3.61,2.08,6.56,5.15,10.29,6.91c3.82,1.8,7.64,3.86,11.97,4.27c1.94,0.18,3.78,1.14,5.81,0.67c0.71-0.17,1.87,0.4,1.84-0.9
	c-0.02-0.78-0.42-1.55-1.46-1.86C55.35,14.33,53.64,13.57,51.37,12.7z M41.23,43.17c2.69-0.53,5.14-2.24,8.06-1.68
	c1.2,0.23,2.25-0.23,2.62-1.35c0.4-1.24-1-1.57-1.66-2.16c-0.63-0.56-1.6-0.67-2.52-0.71c-2.56-0.12-4.76,1.13-7.05,1.92
	c-0.82,0.28-1.66,1.44-1.27,2.68C39.66,42.69,40.24,43.26,41.23,43.17z M28.04,33.62c0-2-1.46-3.6-3.26-3.49
	c-2.1,0.13-2.94,1.6-3.03,3.4c-0.14,2.63,1.14,4.31,2.93,4.26C26.66,37.74,28.04,36.03,28.04,33.62z M62.47,32.96
	c0,1.74,1.24,3.11,2.89,3.17c1.65,0.06,3.58-1.91,3.44-3.72c-0.15-1.98-1.64-3.19-3.36-3.17C63.37,29.26,62.53,30.96,62.47,32.96z
	 M69.5,14.59c-1.25-0.31-1.9-0.08-2.3,0.63c-0.49,0.88,0.05,1.61,0.67,2.02c1.1,0.73,2.31,1.34,3.54,1.82
	c0.87,0.34,1.94-0.12,2.33-0.76c0.34-0.57-0.21-1.42-0.92-1.99C71.69,15.38,70.52,14.64,69.5,14.59z M20.72,29.04
	c2.06,0.09,2.9-1.54,4.05-2.66c0.34-0.33,0.21-0.94-0.31-1.09c-1.75-0.53-2.98,0.32-3.99,1.65c-0.1,0.14-0.29,0.23-0.45,0.3
	c-0.63,0.26-0.74,0.8-0.58,1.34C19.66,29.3,20.34,28.95,20.72,29.04z"/>
<path class="st0" d="M41.23,43.17c-1,0.09-1.57-0.48-1.83-1.3c-0.39-1.24,0.45-2.4,1.27-2.68c2.29-0.79,4.49-2.04,7.05-1.92
	c0.92,0.04,1.89,0.16,2.52,0.71c0.67,0.59,2.07,0.91,1.66,2.16c-0.36,1.12-1.42,1.59-2.62,1.35C46.37,40.93,43.92,42.64,41.23,43.17
	z"/>
<path class="st0" d="M28.04,33.62c0,2.41-1.38,4.12-3.36,4.17c-1.79,0.05-3.07-1.63-2.93-4.26c0.1-1.79,0.93-3.27,3.03-3.4
	C26.58,30.02,28.04,31.62,28.04,33.62z"/>
<path class="st0" d="M62.47,32.96c0.05-1.99,0.9-3.7,2.97-3.72c1.72-0.02,3.2,1.19,3.36,3.17c0.14,1.81-1.78,3.77-3.44,3.72
	C63.72,36.06,62.47,34.7,62.47,32.96z"/>
<path class="st0" d="M69.5,14.59c1.02,0.05,2.19,0.79,3.32,1.71c0.71,0.57,1.26,1.42,0.92,1.99c-0.39,0.64-1.46,1.1-2.33,0.76
	c-1.23-0.48-2.43-1.1-3.54-1.82c-0.62-0.41-1.16-1.14-0.67-2.02C67.6,14.51,68.25,14.27,69.5,14.59z"/>
<path class="st0" d="M20.72,29.04c-0.38-0.09-1.07,0.26-1.27-0.46c-0.16-0.54-0.05-1.08,0.58-1.34c0.16-0.07,0.35-0.16,0.45-0.3
	c1.01-1.34,2.24-2.18,3.99-1.65c0.52,0.16,0.64,0.77,0.31,1.09C23.63,27.51,22.79,29.13,20.72,29.04z"/>
</svg>
