<?xml version="1.0" encoding="utf-8"?>
<!-- Generator: Adobe Illustrator 27.8.0, SVG Export Plug-In . SVG Version: 6.00 Build 0)  -->
<svg version="1.1" id="Layer_1" xmlns="http://www.w3.org/2000/svg" xmlns:xlink="http://www.w3.org/1999/xlink" x="0px" y="0px"
	 viewBox="0 0 89.96 99.17" style="enable-background:new 0 0 89.96 99.17;" xml:space="preserve">
<style type="text/css">
	.st0{fill:#871933;}
	.st1{fill:#ECEAE9;}
</style>
<path class="st0" d="M71.02,0.06c7.12-0.61,10.75,3.67,14.69,8.04c3.41,3.78,3.14,8.66,3.73,13.19c0.99,7.58,0.52,15.27-1.18,22.6
	c-1.55,6.69-2.05,13.56-4,20.12c-0.56,1.88-1.82,3.53-2.47,5.49c-0.7,2.09-1.08,4.26-1.48,6.34c-0.64,3.31-2.51,6.06-3.3,9.25
	c-1.26,5.09-4.17,9.04-8.27,12.36c-1.64,1.32-2.88,0.64-4.39,0.54c-3.32-0.22-6.21-1.62-7.59-4.5c-1.02-2.13-1-4.77-1.81-7.13
	c-1.23-3.57-0.97-7.46-1.77-11.08c-0.65-2.93-0.34-6.35-2.96-8.7c-1.76-1.58-4.55-1.52-5.77,0.48c-2.2,3.63-3.82,7.61-4.96,11.64
	c-0.68,2.4-0.15,5.2-0.7,7.76c-1,4.64-2.25,9.21-6.57,12c-1.5,0.97-3.33,0.56-4.99,0.56c-4.22,0.86-6.33-2.17-8.52-4.74
	c-2.5-2.94-3.87-6.42-5.2-10.14c-2.28-6.37-3.77-12.89-5.22-19.42c-0.55-2.45-2.04-4.82-1.42-7.51c0.25-1.07-0.86-1.48-1.07-2.35
	c-1.44-5.78-2.72-11.62-4.48-17.31c-0.9-2.91-1.26-5.81-1.3-8.74C-0.07,22.16-0.07,15.28,3.7,9.59c2.57-3.88,6.29-6.84,11.32-8.21
	c4.01-1.09,7.65-1.19,11.65-0.49c4.45,0.78,7.51,3.72,10.93,6.08c2.04,1.41,4.32,3.31,6.36,3.42c2.55,0.13,5.53-0.71,8-2.22
	c3.19-1.95,6.2-4.76,9.66-5.56C64.74,1.88,67.58,0.35,71.02,0.06"/>
<path class="st0" d="M51.22,12.47c2.32,0.88,4.04,1.59,5.81,2.17c0.98,0.32,1.44,1.04,1.41,1.89c-0.04,1.31-1.17,0.83-1.89,0.82
	c-5.35-0.01-10.37-1.47-15.14-3.75c-2.69-1.29-5.67-2.41-7.77-4.39c-5.26-4.96-10.72-6.35-17.81-4.06
	c-7.13,2.3-10.45,7.4-11.71,13.85c-1.1,5.62-0.79,11.56,0.6,17.18c1.37,5.58,3.42,10.98,4.74,16.59c1.14,4.82,2.29,9.63,3.5,14.42
	c2.32,9.11,3.24,18.73,10.08,26.15c1.83,1.98,6.8,2.84,8.38,0.78c2.38-3.1,3.43-6.69,3.93-10.61c0.35-2.75-0.13-5.53,1.29-8.35
	c1.49-2.96,2.58-6.13,4.28-9.06c1.71-2.94,5.39-5.16,8.98-4.65c1.6,0.23,4.6,4,5.33,6.02c1.1,3.04,1.45,6.18,1.91,9.32
	c0.6,4.02,1.62,7.99,2.19,11.97c0.39,2.73,1.68,3.99,3.6,4.97c1.69,0.87,4.11,1.3,5.2-0.43c1.77-2.8,4.51-5.14,4.98-8.65
	c0.41-3.03,2.41-5.43,3.04-8.39c0.76-3.61,2.13-7.1,2.68-10.73c0.32-2.11,1.98-3.41,2.35-5.28c1.11-5.6,1.72-11.31,3.09-16.84
	c1.15-4.66,1.36-9.41,1.83-14.09c0.37-3.69-0.63-7.54-1.23-11.29c-0.37-2.3-0.15-4.63-1.49-6.88c-3.84-6.44-12-8.75-18.74-5.59
	C60.26,7.66,56.6,11.08,51.22,12.47z"/>
<path class="st1" d="M51.22,12.47c5.38-1.39,9.04-4.81,13.44-6.87c6.74-3.16,14.9-0.85,18.74,5.59c1.34,2.24,1.11,4.58,1.49,6.88
	c0.61,3.75,1.61,7.6,1.23,11.29c-0.48,4.69-0.68,9.43-1.83,14.09c-1.37,5.53-1.98,11.24-3.09,16.84c-0.37,1.87-2.02,3.16-2.35,5.28
	c-0.56,3.63-1.92,7.12-2.68,10.73c-0.63,2.96-2.63,5.36-3.04,8.39c-0.47,3.51-3.21,5.85-4.98,8.65c-1.09,1.73-3.51,1.3-5.2,0.43
	c-1.92-0.99-3.21-2.24-3.6-4.97c-0.57-3.98-1.59-7.95-2.19-11.97c-0.47-3.14-0.81-6.28-1.91-9.32c-0.73-2.02-3.73-5.79-5.33-6.02
	c-3.59-0.52-7.27,1.71-8.98,4.65c-1.7,2.93-2.79,6.1-4.28,9.06c-1.42,2.82-0.95,5.6-1.29,8.35c-0.5,3.91-1.55,7.51-3.93,10.61
	c-1.59,2.06-6.55,1.2-8.38-0.78c-6.85-7.42-7.77-17.04-10.08-26.15c-1.22-4.8-2.37-9.61-3.5-14.42C8.14,47.18,6.1,41.77,4.73,36.19
	c-1.39-5.63-1.7-11.56-0.6-17.18C5.39,12.55,8.71,7.45,15.84,5.16c7.09-2.29,12.55-0.9,17.81,4.06c2.1,1.98,5.08,3.1,7.77,4.39
	c4.77,2.29,9.79,3.74,15.14,3.75c0.72,0,1.85,0.48,1.89-0.82c0.02-0.84-0.43-1.56-1.41-1.89C55.27,14.06,53.54,13.35,51.22,12.47z
	 M21.55,32.78c-0.08,3.01,1.09,4.78,2.91,4.79c2,0.01,3.5-1.73,3.41-4.17c-0.07-1.89-0.94-3.37-3.02-3.47
	C22.72,29.81,22.12,31.53,21.55,32.78z M62.37,31.84c-0.07,2.58,1.11,3.94,2.77,4.04c1.66,0.11,3.61-1.78,3.54-3.62
	c-0.08-2.02-1.58-3.21-3.29-3.25C63.33,28.97,62.44,30.65,62.37,31.84z M68.7,13.69c-0.78-0.17-1.23,0.44-1.94,0.27
	c-1.25-0.29-2.57,0.02-2.39,1.57c0.16,1.41,1.47,1.86,2.77,1.43c1.23-0.4,2.04,0.12,2.89,0.83c0.75,0.62,1.53,1.2,2.31,1.77
	c0.42,0.31,0.81,0.71,1.4,0.19c0.5-0.43,0.41-0.84,0.33-1.42C73.78,16.13,70.41,13.89,68.7,13.69z M45.31,41.45
	c1.8-0.32,4.35,0.36,4.82-2.13c0.38-2-1.31-2.92-3.33-2.91c-2.22,0.01-4.53,1.5-4.44,3.1C42.47,41.27,43.79,41.58,45.31,41.45z
	 M19.56,28.92c1.68-1.17,4.1-1.12,5.37-3.15c0.43-0.69,0.48-1.34-0.12-1.96c-0.66-0.68-1.27-0.49-1.88,0.08
	c-1.14,1.07-2.6,1.36-4.05,1.75c-0.92,0.25-2.22,0.64-2.07,1.77C16.98,28.64,18.45,28.51,19.56,28.92z"/>
<path class="st0" d="M21.55,32.78c0.56-1.25,1.17-2.96,3.31-2.86c2.08,0.1,2.95,1.58,3.02,3.47c0.09,2.45-1.41,4.19-3.41,4.17
	C22.65,37.55,21.47,35.78,21.55,32.78z"/>
<path class="st0" d="M62.37,31.84c0.07-1.19,0.96-2.87,3.02-2.83c1.7,0.04,3.2,1.23,3.29,3.25c0.08,1.84-1.87,3.73-3.54,3.62
	C63.48,35.78,62.3,34.42,62.37,31.84z"/>
<path class="st0" d="M68.7,13.69c1.71,0.19,5.08,2.44,5.39,4.66c0.08,0.58,0.17,0.99-0.33,1.42c-0.59,0.51-0.99,0.12-1.4-0.19
	c-0.78-0.58-1.56-1.15-2.31-1.77c-0.85-0.71-1.67-1.23-2.89-0.83c-1.31,0.42-2.61-0.02-2.77-1.43c-0.18-1.55,1.15-1.86,2.39-1.57
	C67.47,14.13,67.92,13.52,68.7,13.69z"/>
<path class="st0" d="M45.31,41.45c-1.53,0.13-2.85-0.18-2.95-1.93c-0.09-1.61,2.23-3.09,4.44-3.1c2.01-0.01,3.7,0.91,3.33,2.91
	C49.66,41.82,47.11,41.13,45.31,41.45z"/>
<path class="st0" d="M19.56,28.92c-1.11-0.41-2.58-0.28-2.75-1.52c-0.16-1.12,1.14-1.52,2.07-1.77c1.45-0.39,2.91-0.69,4.05-1.75
	c0.61-0.57,1.22-0.76,1.88-0.08c0.6,0.62,0.55,1.27,0.12,1.96C23.66,27.8,21.24,27.75,19.56,28.92z"/>
</svg>
