<?xml version="1.0" encoding="utf-8"?>
<!-- Generator: Adobe Illustrator 27.8.0, SVG Export Plug-In . SVG Version: 6.00 Build 0)  -->
<svg version="1.1" id="Layer_1" xmlns="http://www.w3.org/2000/svg" xmlns:xlink="http://www.w3.org/1999/xlink" x="0px" y="0px"
	 viewBox="0 0 90.08 99.17" style="enable-background:new 0 0 90.08 99.17;" xml:space="preserve">
<style type="text/css">
	.st0{fill:#871933;}
	.st1{fill:#ECEAE9;}
</style>
<path class="st0" d="M27.34,99.02c-4.22,0.85-6.31-2.19-8.51-4.75c-2.52-2.94-3.86-6.43-5.19-10.15
	c-2.28-6.37-3.78-12.89-5.23-19.42c-0.54-2.45-2.05-4.81-1.42-7.51c0.04-0.17,0.1-0.41,0.02-0.53C4.01,51.97,4.37,46.28,2.3,41.26
	c-1.7-4.14-2.3-8.75-2.3-13.24c-0.01-4.04,0.66-8.07,1.23-12.1C2.09,9.81,9.62,2.67,15.15,1.35c3.92-0.94,7.52-1.18,11.41-0.56
	c4.53,0.72,7.82,3.59,11.15,6.19c4.11,3.22,9.9,3.95,14.37,1.17c3.18-1.98,6.2-4.76,9.67-5.55c3.14-0.71,5.96-2.25,9.4-2.55
	c7.13-0.6,10.72,3.7,14.69,8.05c3.38,3.7,3.13,8.49,3.71,12.93c1.01,7.66,0.56,15.45-1.16,22.88c-1.55,6.69-2.04,13.56-4.01,20.12
	c-0.56,1.88-1.78,3.55-2.47,5.48c-0.72,2-1,4.1-1.41,6.08c-0.68,3.3-2.54,6.07-3.3,9.25c-1.27,5.34-4.36,9.31-8.56,12.76
	c-1.64,1.35-2.8,0.41-4.17,0.35c-3.32-0.15-6.22-1.59-7.59-4.48c-1.01-2.13-0.99-4.77-1.81-7.13c-1.24-3.57-0.91-7.48-1.78-11.08
	c-0.66-2.74-0.19-5.94-2.68-8.25c-2.47-2.28-4.71-2.07-6.41,0.75c-1.93,3.21-3.14,6.74-4.41,10.18c-0.96,2.59-0.38,5.72-0.91,8.53
	c-0.87,4.66-2.23,9.21-6.55,12C30.85,99.43,29,99.02,27.34,99.02z M51.51,12.45c2,0.81,3.65,1.66,5.41,2.14
	c1.18,0.32,1.67,1.02,1.64,1.96c-0.03,1.3-1.21,0.64-1.9,0.83c-1.94,0.51-3.69-0.43-5.53-0.67c-6.5-0.84-12.44-3.64-17.31-7.6
	c-5.6-4.54-10.82-6.2-17.87-3.95C8.81,7.44,5.5,12.57,4.25,19.03c-1.09,5.62-0.78,11.55,0.61,17.18c1.4,5.66,3.48,11.16,4.82,16.85
	c1.12,4.73,2.21,9.46,3.42,14.16c2.34,9.1,3.2,18.75,10.11,26.14c1.82,1.95,6.83,2.82,8.38,0.76c2.34-3.11,3.44-6.69,3.9-10.62
	c0.32-2.75-0.08-5.53,1.32-8.34c1.48-2.97,2.58-6.13,4.27-9.07c1.66-2.89,4.79-4.88,8.73-4.66c1.47,0.08,4.93,3.64,5.51,5.55
	c0.98,3.22,1.58,6.51,2,9.84c0.52,4.03,1.62,7.99,2.17,11.97c0.38,2.74,1.71,3.98,3.62,4.96c1.68,0.86,4.09,1.29,5.19-0.46
	c1.76-2.81,4.56-5.12,4.97-8.65c0.35-2.97,2.19-5.32,3.04-8.11c1.09-3.55,1.7-7.2,2.61-10.77c0.53-2.09,2.01-3.58,2.4-5.52
	c1.12-5.51,1.71-11.13,3.06-16.57c1.18-4.75,1.23-9.59,1.92-14.36c0.41-2.81-0.11-5.87-0.78-8.68c-0.74-3.14-0.27-6.47-2.02-9.46
	c-3.79-6.47-11.96-8.75-18.72-5.57C60.38,7.68,56.7,11.05,51.51,12.45z"/>
<path class="st1" d="M51.51,12.45c5.19-1.4,8.87-4.77,13.26-6.84c6.75-3.18,14.92-0.9,18.72,5.57c1.75,2.99,1.28,6.32,2.02,9.46
	c0.67,2.81,1.19,5.88,0.78,8.68c-0.69,4.78-0.74,9.62-1.92,14.36c-1.35,5.44-1.94,11.07-3.06,16.57c-0.39,1.94-1.87,3.43-2.4,5.52
	C78,69.35,77.38,73,76.3,76.55c-0.85,2.78-2.7,5.13-3.04,8.11c-0.41,3.53-3.21,5.85-4.97,8.65c-1.1,1.75-3.51,1.32-5.19,0.46
	c-1.91-0.98-3.23-2.22-3.62-4.96c-0.55-3.98-1.65-7.94-2.17-11.97c-0.43-3.33-1.03-6.62-2-9.84c-0.58-1.92-4.03-5.47-5.51-5.55
	c-3.94-0.22-7.07,1.77-8.73,4.66c-1.69,2.94-2.79,6.1-4.27,9.07c-1.4,2.81-1,5.59-1.32,8.34c-0.46,3.93-1.56,7.5-3.9,10.62
	c-1.55,2.06-6.56,1.2-8.38-0.76c-6.9-7.4-7.77-17.04-10.11-26.14c-1.21-4.7-2.3-9.44-3.42-14.16c-1.34-5.7-3.42-11.19-4.82-16.85
	c-1.39-5.63-1.7-11.56-0.61-17.18C5.5,12.57,8.81,7.44,15.94,5.17c7.05-2.25,12.28-0.6,17.87,3.95c4.87,3.96,10.81,6.76,17.31,7.6
	c1.84,0.24,3.6,1.18,5.53,0.67c0.7-0.18,1.87,0.48,1.9-0.83c0.02-0.94-0.47-1.65-1.64-1.96C55.16,14.12,53.51,13.27,51.51,12.45z
	 M72.18,30.86c0.79-1.29-0.71-2.19-0.99-3.42c-0.54-2.34-3.51-4.67-5.78-4.53c-5.82,0.36-8.12,4.19-8.79,8.7
	c-0.17,1.11,0.27,2.91,1.91,3.09c1.62,0.18,1.98-1.24,2.2-2.56c0.14-0.88,0.2-1.81,0.56-2.6c0.7-1.52,1.57-2.64,3.66-2.69
	c3.26-0.08,3.25,1.91,3.44,4.17c0.12,1.39,0.36,3.12,2.31,3.07C72.81,34.05,72.29,32.4,72.18,30.86z M24.42,23.56
	c-0.72,0.31-1.66,0.23-2.61,0.77c-3.48,1.97-3.73,5.34-4.11,8.67c-0.09,0.74,0.33,1.45,1.06,1.71c0.78,0.28,1.26-0.23,1.81-0.81
	c1.03-1.08,1.08-2.48,1.41-3.74c0.53-2,1.88-2.33,3.61-2.42c1.9-0.1,2.13,1.16,2.39,2.56c0.22,1.22,0.67,2.4,0.85,3.62
	c0.12,0.8,0.26,1.46,1.14,1.59c0.94,0.14,1.41-0.47,1.89-1.21c1.07-1.62-0.08-3.06-0.26-4.56C31.09,25.29,29.05,23.55,24.42,23.56z
	 M52.05,36.58c0.16-0.83-0.38-1.22-1.15-1.43c-1.1-0.3-2.02,0.05-2.44,1.08c-1.05,2.58-2.31,2.68-3.93,0.51
	c-0.16-0.21-0.43-0.33-0.63-0.5c-0.64-0.54-1.28-1.09-2.12-0.38c-0.75,0.63-1.07,1.4-0.72,2.39c0.64,1.81,3.79,4.31,5.28,4.15
	C49.6,42.04,51.99,39.65,52.05,36.58z"/>
<path class="st0" d="M72.18,30.86c0.11,1.54,0.62,3.19-1.48,3.24c-1.95,0.05-2.2-1.68-2.31-3.07c-0.19-2.26-0.18-4.25-3.44-4.17
	c-2.09,0.05-2.97,1.17-3.66,2.69c-0.36,0.79-0.41,1.72-0.56,2.6c-0.22,1.32-0.58,2.74-2.2,2.56c-1.64-0.18-2.08-1.98-1.91-3.09
	c0.68-4.52,2.97-8.35,8.79-8.7c2.27-0.14,5.23,2.19,5.78,4.53C71.48,28.67,72.97,29.57,72.18,30.86z"/>
<path class="st0" d="M24.42,23.56c4.63-0.01,6.66,1.73,7.19,6.19c0.18,1.5,1.33,2.94,0.26,4.56c-0.48,0.73-0.95,1.35-1.89,1.21
	c-0.87-0.13-1.02-0.8-1.14-1.59c-0.18-1.22-0.63-2.4-0.85-3.62c-0.26-1.4-0.49-2.66-2.39-2.56c-1.72,0.09-3.08,0.42-3.61,2.42
	c-0.33,1.26-0.38,2.66-1.41,3.74c-0.55,0.58-1.03,1.09-1.81,0.81c-0.73-0.26-1.15-0.96-1.06-1.71c0.38-3.34,0.63-6.7,4.11-8.67
	C22.77,23.8,23.7,23.87,24.42,23.56z"/>
<path class="st0" d="M52.05,36.58c-0.06,3.07-2.45,5.46-5.72,5.82c-1.49,0.16-4.64-2.34-5.28-4.15c-0.35-0.99-0.03-1.76,0.72-2.39
	c0.84-0.71,1.49-0.16,2.12,0.38c0.21,0.17,0.48,0.29,0.63,0.5c1.62,2.18,2.88,2.08,3.93-0.51c0.42-1.04,1.34-1.38,2.44-1.08
	C51.67,35.36,52.21,35.75,52.05,36.58z"/>
</svg>
