<?xml version="1.0" encoding="UTF-8"?>
<svg id="Layer_1" data-name="Layer 1" xmlns="http://www.w3.org/2000/svg" viewBox="0 0 49.33 58.53">
  <defs>
    <style>
      .cls-1 {
        fill: #871933;
      }

      .cls-1, .cls-2 {
        stroke-width: 0px;
      }

      .cls-2 {
        fill: #eceae9;
      }
    </style>
  </defs>
  <path class="cls-1" d="m49.28,20.95c-.16,4.13-.68,8.33-2.94,11.77-1.51,2.29-3.16,4.75-5.95,6.11-3.12,1.51-5.79,3.83-8.98,5.31-1.24.57-1.67,2.54-1.97,3.73-.73,2.88-1.59,5.71-2.6,8.48-.44,1.19-1.64,2.11-2.79,2.17-.85.05-1.25-1.18-1.6-2.19-1.17-3.36-2.08-6.77-2.78-10.24-.22-1.08-.61-1.27-1.66-1.57-6.19-1.8-11.62-4.06-15.45-10.3C-.28,29.62-.28,25.32.32,20.9c.61-4.49,3.09-8.41,6.5-11.76C10.9,5.12,15.1,1.43,20.88.33c3.44-.66,6.82-.3,10.33.74,3.29.97,6.4,2.33,9.54,3.56,1.43.56,2.97,1.79,4,3.03,3.38,4.06,4.88,7.64,4.52,13.29Zm-24.17,29.13c.62-2.29,1.26-4.49,1.8-6.71.43-1.81,1.32-2.8,3.29-3.29,4.32-1.08,8.1-3.36,10.89-6.84,3.27-4.08,4-8.99,4.28-14.13.22-4.13-1.79-7.51-4.34-9.53-3.03-2.4-6.78-4.38-10.95-5.14-3.65-.67-7.32-1.02-10.69.3-3.89,1.51-7.18,4.25-10.03,7.31-1.69,1.82-3.31,3.79-4.16,6.24-1.66,4.78-2.02,9.24.67,14.04,1.87,3.34,4.07,5.72,7.6,6.65,1.81.48,3.62.98,5.4,1.52,3.32,1,4.45,2.66,4.66,6.15.08,1.26.08,2.56,1.58,3.43Z"/>
  <path class="cls-2" d="m25.11,50.08c-1.5-.87-1.51-2.17-1.58-3.43-.21-3.49-1.34-5.15-4.66-6.15-1.78-.54-3.59-1.04-5.4-1.52-3.53-.93-5.73-3.31-7.6-6.65-2.69-4.8-2.33-9.26-.67-14.04.85-2.45,2.47-4.42,4.16-6.24,2.85-3.07,6.14-5.8,10.03-7.31,3.38-1.31,7.04-.97,10.69-.3,4.17.77,7.92,2.75,10.95,5.14,2.55,2.02,4.57,5.39,4.34,9.53-.28,5.14-1.01,10.05-4.28,14.13-2.79,3.48-6.57,5.76-10.89,6.84-1.97.49-2.86,1.48-3.29,3.29-.53,2.22-1.18,4.42-1.8,6.71Zm2.51-36.41c0-3.54-.9-4.46-3.82-4.57-2.28-.09-3.91,1.18-3.89,3.36.03,3.82.73,7.58,1.45,11.32.28,1.47,1.44,1.3,2.57,1.3,1.12,0,1.57-.2,2.02-1.48,1.23-3.46-.36-7.3,1.67-9.92Zm.02,16.59c.77-2.08-.68-2.59-2.88-2.46-2.26.13-3.32,1.5-3.37,3.88-.05,2.33,1.2,2.71,3.09,2.6,2.19-.14,3.6-.91,3.16-4.02Z"/>
  <path class="cls-1" d="m27.61,13.68c-2.03,2.62-.45,6.47-1.67,9.92-.45,1.28-.9,1.48-2.02,1.48-1.13,0-2.29.17-2.57-1.3-.72-3.74-1.42-7.5-1.45-11.32-.02-2.18,1.61-3.44,3.89-3.36,2.92.11,3.82,1.03,3.82,4.57Z"/>
  <path class="cls-1" d="m27.64,30.27c.44,3.1-.98,3.88-3.16,4.02-1.88.12-3.13-.27-3.09-2.6.05-2.39,1.11-3.75,3.37-3.88,2.2-.13,3.65.38,2.88,2.46Z"/>
</svg>