<?xml version="1.0" encoding="utf-8"?>
<!-- Generator: Adobe Illustrator 27.8.0, SVG Export Plug-In . SVG Version: 6.00 Build 0)  -->
<svg version="1.1" id="Layer_1" xmlns="http://www.w3.org/2000/svg" xmlns:xlink="http://www.w3.org/1999/xlink" x="0px" y="0px"
	 viewBox="0 0 90.09 99.18" style="enable-background:new 0 0 90.09 99.18;" xml:space="preserve">
<style type="text/css">
	.st0{fill:#871933;}
	.st1{fill:#ECEAE9;}
</style>
<path class="st0" d="M27.35,99.04c-4.22,0.84-6.32-2.2-8.51-4.77c-2.51-2.94-3.86-6.43-5.19-10.15c-2.28-6.37-3.78-12.89-5.23-19.42
	c-0.54-2.45-2.05-4.81-1.42-7.51c0.04-0.17,0.1-0.41,0.02-0.53C4.01,51.98,4.37,46.28,2.3,41.27C0.6,37.12,0.01,32.52,0,28.02
	c-0.01-4.04,0.66-8.07,1.23-12.1C2.09,9.8,9.63,2.67,15.15,1.35c3.92-0.94,7.52-1.18,11.41-0.56c4.52,0.72,7.69,3.73,11.17,6.17
	c2.03,1.42,4.32,3.32,6.36,3.42c2.55,0.12,5.53-0.71,7.99-2.23c3.19-1.96,6.2-4.76,9.67-5.55c3.13-0.72,5.96-2.25,9.4-2.55
	c7.13-0.6,10.72,3.7,14.69,8.05c3.38,3.7,3.13,8.49,3.71,12.93c1.01,7.66,0.56,15.45-1.16,22.88c-1.55,6.69-2.05,13.56-4.01,20.12
	c-0.56,1.88-1.78,3.55-2.47,5.48c-0.71,2-1,4.1-1.41,6.08c-0.68,3.3-2.54,6.07-3.3,9.25c-1.28,5.33-4.34,9.32-8.55,12.77
	c-1.64,1.34-2.79,0.41-4.17,0.35c-3.32-0.15-6.22-1.59-7.59-4.48c-1.01-2.13-0.99-4.77-1.81-7.13c-1.24-3.57-0.91-7.48-1.78-11.08
	c-0.66-2.74-0.19-5.94-2.68-8.25c-2.47-2.29-4.71-2.08-6.4,0.74c-1.93,3.21-3.14,6.74-4.41,10.18c-0.96,2.6-0.39,5.72-0.91,8.53
	c-0.86,4.66-2.24,9.2-6.54,12.01C30.84,99.44,29,98.96,27.35,99.04z M51.48,12.51c2.14,0.8,3.93,1.51,5.74,2.15
	c0.95,0.34,1.4,1.04,1.35,1.93c-0.06,1.12-1.03,0.65-1.68,0.79c-2.02,0.44-3.87-0.48-5.81-0.66c-4.43-0.41-8.3-2.53-12.22-4.34
	c-3.68-1.7-6.51-4.77-10.08-6.75C24.37,3.18,15.54,3.51,11.67,6.8c-4.34,3.69-6.87,8.1-7.48,14.06c-0.54,5.26-0.36,10.39,0.73,15.38
	c1.65,7.6,4.64,14.85,5.96,22.61c0.82,4.84,2.11,9.68,3.52,14.42c2.1,7.05,3.14,14.55,8.83,20.13c1.88,1.84,6.84,2.76,8.39,0.7
	c2.3-3.05,3.71-6.56,3.8-10.39c0.1-4.18,0.93-8.14,2.67-11.91c0.9-1.96,1.89-3.87,2.97-5.75c1.61-2.81,4.92-4.87,8.78-4.61
	c1.47,0.1,4.87,3.69,5.48,5.59c1.03,3.21,1.52,6.52,2,9.84c0.58,4.03,1.66,7.99,2.16,11.97c0.37,2.92,1.95,4.13,3.88,5.07
	c1.49,0.72,3.89,1.17,4.97-0.62c1.72-2.84,4.5-5.14,4.95-8.67c0.37-2.86,1.99-5.23,2.93-7.85c1.29-3.59,1.8-7.36,2.71-11.02
	c0.52-2.09,2-3.57,2.4-5.52c1.07-5.33,1.73-10.76,3-16.04c1.16-4.83,1.31-9.76,1.98-14.63c0.4-2.9-0.13-6.04-0.81-8.95
	c-0.73-3.14-0.26-6.47-2.02-9.46c-3.81-6.47-11.94-8.72-18.73-5.51C60.36,7.71,56.67,11.04,51.48,12.51z"/>
<path class="st1" d="M51.48,12.51c5.19-1.47,8.88-4.8,13.26-6.87c6.78-3.21,14.91-0.96,18.73,5.51c1.76,2.99,1.29,6.32,2.02,9.46
	c0.68,2.9,1.21,6.05,0.81,8.95c-0.67,4.87-0.82,9.8-1.98,14.63c-1.27,5.28-1.93,10.71-3,16.04c-0.39,1.95-1.88,3.43-2.4,5.52
	c-0.91,3.66-1.42,7.44-2.71,11.02c-0.94,2.63-2.57,4.99-2.93,7.85c-0.45,3.53-3.24,5.83-4.95,8.67c-1.08,1.79-3.47,1.34-4.97,0.62
	c-1.94-0.93-3.52-2.14-3.88-5.07c-0.5-3.98-1.58-7.95-2.16-11.97c-0.48-3.31-0.96-6.63-2-9.84c-0.61-1.89-4-5.48-5.48-5.59
	c-3.86-0.27-7.17,1.79-8.78,4.61c-1.08,1.88-2.07,3.79-2.97,5.75c-1.74,3.78-2.56,7.73-2.67,11.91c-0.1,3.83-1.5,7.34-3.8,10.39
	c-1.55,2.06-6.52,1.14-8.39-0.7c-5.68-5.58-6.73-13.08-8.83-20.13c-1.41-4.74-2.69-9.58-3.52-14.42C9.56,51.1,6.57,43.84,4.92,36.24
	c-1.09-4.99-1.27-10.12-0.73-15.38c0.62-5.95,3.15-10.37,7.48-14.06c3.86-3.29,12.7-3.62,17.11-1.17c3.57,1.99,6.4,5.05,10.08,6.75
	c3.92,1.81,7.79,3.93,12.22,4.34c1.94,0.18,3.79,1.1,5.81,0.66c0.65-0.14,1.62,0.33,1.68-0.79c0.04-0.89-0.4-1.6-1.35-1.93
	C55.41,14.02,53.62,13.32,51.48,12.51z M39.58,36.65c0.52,1.72,1.35,2.92,1.62,4.46c0.53,2.95,3.27,4.52,5.84,3.75
	c3.93-1.17,5.61-4.3,4.71-8.35c-0.45-2.03-1.43-2.46-3.39-2.3C45.28,34.47,42.63,36.03,39.58,36.65z M28.48,32.13
	c-0.03-2.04-1.99-4.83-3.43-4.88c-1.35-0.05-3.39,2.83-3.32,4.67c0.1,2.37,1.94,4.78,3.64,4.77C27.49,36.68,28.53,35.16,28.48,32.13
	z M71.17,30.01c0.54-2.19-0.85-3.81-2.68-3.99c-1.88-0.19-2.81,1.75-3.55,3.51c-0.84,2,1.3,4.64,2.96,5.63
	c0.48,0.28,1.24,0.22,1.43-0.34C69.89,33.23,72.05,32.27,71.17,30.01z"/>
<path class="st0" d="M39.58,36.65c3.05-0.62,5.7-2.18,8.78-2.44c1.96-0.16,2.94,0.27,3.39,2.3c0.89,4.05-0.78,7.18-4.71,8.35
	c-2.57,0.76-5.31-0.8-5.84-3.75C40.93,39.58,40.1,38.37,39.58,36.65z"/>
<path class="st0" d="M28.48,32.13c0.04,3.03-0.99,4.55-3.11,4.56c-1.71,0.01-3.54-2.4-3.64-4.77c-0.08-1.84,1.97-4.72,3.32-4.67
	C26.49,27.31,28.45,30.1,28.48,32.13z"/>
<path class="st0" d="M71.17,30.01c0.88,2.26-1.27,3.22-1.84,4.81c-0.2,0.55-0.95,0.62-1.43,0.34c-1.66-0.99-3.8-3.63-2.96-5.63
	c0.74-1.77,1.67-3.7,3.55-3.51C70.31,26.2,71.7,27.82,71.17,30.01z"/>
</svg>
