<?xml version="1.0" encoding="utf-8"?>
<!-- Generator: Adobe Illustrator 27.8.0, SVG Export Plug-In . SVG Version: 6.00 Build 0)  -->
<svg version="1.1" id="Layer_1" xmlns="http://www.w3.org/2000/svg" xmlns:xlink="http://www.w3.org/1999/xlink" x="0px" y="0px"
	 viewBox="0 0 91.06 99.69" style="enable-background:new 0 0 91.06 99.69;" xml:space="preserve">
<style type="text/css">
	.st0{fill:#871933;}
	.st1{fill:#ECEAE9;}
</style>
<path class="st0" d="M10.41,72.94c-0.25-1.85-1.42-3.49-1.21-5.44c0.79-0.67,0.79-1.23-0.23-1.65c-1.48-1.72-1.16-4.08-1.62-6.03
	c-0.46-1.94-1.31-3.89-1.45-5.94c0.8-1.26-0.53-2.15-0.56-3.27c-1.25-3.4-2.36-6.85-3.17-10.38c0.74-0.74,0.26-0.96-0.46-1.07
	c-0.45-3.27-1.65-6.44-1.2-9.81c0.61-0.43,0.46-1.07,0.45-1.66c-1.68-4.06,0.14-7.95,0.75-11.84C2.57,10.45,6.3,6.91,10.6,3.96
	c0.63-0.43,1.48-0.55,2.23-0.81c0.66,0.09,1.15-0.07,1.26-0.81c1.82,0.14,3.26-1.07,5.04-1.37c3.42-0.57,6.48,0.25,9.64,1.04
	c0.29,0.81,0.98,0.69,1.62,0.69c0.57,0.4,1.15,0.8,1.72,1.2c0.33,0.57,0.89,0.43,1.4,0.44c0.6,0.53,1.2,1.07,1.79,1.6
	c0.07,0.93,0.58,1.21,1.44,0.98c1.5,0.62,2.84,1.6,4.11,2.49c4.26,3,7.76,0.61,11.61-0.81c1.79-0.66,2.95-2.19,4.77-2.61
	c1.5-0.12,2.82-0.58,3.77-1.83c0.17-0.13,0.34-0.25,0.51-0.38c0.63,0.03,1.08-0.17,1.12-0.88c1.89,0.16,3.42-0.92,5-1.65
	c1.48-0.69,2.81-0.85,4.27-0.19c0.71,0.02,1.44,0.23,2.09-0.26c1.21-0.45,2.28,0.07,3.37,0.49c0.02,0.16,0.11,0.26,0.27,0.29
	c0.18,1.86-1.22,2.88-2.34,3.87c-2.56,2.26-3.67,5.75-1.35,9.15c1.35,1.98,3.61,2.22,5.79,2.41c1.93,0.16,3.88,0.25,5.81,0.37
	c0.03,0.54,0.05,1.07,0.57,1.42c0.07,1.3-0.95,1.72-1.78,2.39c-2.22,1.79-2.05,3.57,0.38,4.9c1.54,0.85,3.01,1.64,4.92,1.77
	c2.61,0.18,0.92,2,0.79,3.18c-0.65,0.52-0.7,1.06-0.03,1.61c-0.53,3.76-0.77,7.59-1.7,11.25c-0.7,2.78-1.64,5.47-1.73,8.36
	c-1.01,0.25-1.16,0.79-0.54,1.59c-0.06,0.56-0.12,1.11-0.18,1.67c-0.72,0.24-0.91,0.58-0.22,1.1c-0.08,0.54-0.15,1.09-0.23,1.63
	c-0.66,0.17-1.09,0.43-0.37,1.08c0.25,1.95-0.63,3.67-1.14,5.47c-1.05,0.14-0.94,0.93-0.92,1.66c-0.25,0.54-0.49,1.07-0.74,1.61
	c-0.77,0.17-1.13,0.47-0.33,1.11c-0.07,0.54-0.13,1.09-0.2,1.63c-0.12,0.12-0.24,0.25-0.36,0.37c-0.55,2.42-1.11,4.84-1.66,7.26
	c-0.6,0.38-0.56,0.98-0.54,1.57c-1.23,2.45-1.96,5.07-2.71,7.69c-0.02,0.18-0.02,0.35,0,0.53c-1.92,2.62-3.16,5.67-5.57,8.01
	c-2.18,2.11-4.23,2.98-7.42,2.26c-3-0.68-5.55-2.01-6.71-4.47c-0.94-2-0.98-4.58-1.57-6.87c0.79-0.65,0.43-0.94-0.34-1.11
	c-1.15-3.32-1.1-6.8-1.54-10.22c-0.34-2.62-1.26-5.17-1.93-7.75c0.01-0.74-0.38-1.07-1.1-1.08c-0.36-0.23-0.72-0.45-1.08-0.68
	c-0.14-0.73-0.37-1.23-1.1-0.42c-3.6-0.1-4.27,2.9-5.47,5.25c-2.12,4.18-3.44,8.63-3.9,13.31c-0.64,0.53-0.65,1.05,0,1.58
	c-0.27,3.83-1.43,7.33-3.84,10.37c-0.7,0.04-0.98,0.44-0.97,1.11c-1.15,0.34-1.41,1.9-2.74,2c-0.2-0.12-0.39-0.24-0.59-0.35
	c-1.94,0.92-3.93,0.5-5.92,0.26c-0.2-0.77-0.53-1.04-1.11-0.27c-2.34-1.14-3.94-3.07-5.44-5.1c-0.03-0.6-0.36-0.88-0.95-0.91
	c-0.75-0.6-0.28-1.85-1.26-2.33c-0.13-0.13-0.25-0.25-0.38-0.38c-1.57-3.12-2.27-6.54-3.4-9.82c0.97-0.96,0.38-1.58-0.47-2.14
	c-0.04-0.37-0.08-0.73-0.12-1.1c0.03-0.71,0.16-1.46-0.82-1.67c-0.03-0.56-0.06-1.11-0.09-1.67C11.62,73.19,11.04,73.05,10.41,72.94
	z M58.22,17.78l-0.11,0.12l-0.16-0.05l0.04,0c-1.01,0.01-2.01,0.02-3.02,0.03c-0.63-0.49-1.15-1.37-2.14-0.61
	c-2.58-0.54-5.4-0.05-7.69-1.82c-0.08-0.18-0.22-0.27-0.41-0.28c-0.22-0.06-0.44-0.12-0.66-0.18c-0.15-0.12-0.3-0.24-0.45-0.36
	c-1.54,0.3-2.45-1.35-3.91-1.28c-0.14-0.12-0.28-0.24-0.43-0.35c-0.21-0.21-0.42-0.43-0.63-0.64c-0.18-0.15-0.35-0.29-0.53-0.44
	c-1.01,0-1.7-0.52-2.2-1.35c-0.37-1.06-1.27-1.25-2.22-1.35c-0.72-0.62-1.45-1.24-2.17-1.86c-0.14-0.12-0.29-0.24-0.43-0.36
	c-0.94,0.01-1.69-0.36-2.28-1.09c-0.19-0.17-0.37-0.34-0.56-0.52c-0.18-0.05-0.37-0.1-0.55-0.15c-0.63-0.45-1.18-1.19-2.11-0.62
	c-2.98-0.2-5.96-0.49-8.81,0.77c-0.17,0.12-0.34,0.24-0.52,0.36c-0.6,0.05-1.2,0.1-1.8,0.16c-0.16,0-0.28,0.08-0.35,0.22
	c-0.22,0.11-0.45,0.22-0.67,0.33c-0.4-0.03-0.77,0.01-1,0.4c-0.78,0.77-1.56,1.55-2.35,2.32C9.92,9.23,9.79,9.34,9.73,9.52
	c-0.7,0.19-1.02,0.74-1.31,1.33c-0.18,0.04-0.29,0.15-0.34,0.34c-0.33,0.28-0.65,0.55-0.98,0.83c-0.12,0.08-0.17,0.19-0.16,0.33
	l-0.06,0.1c-0.73,0.09-1.04,0.5-0.94,1.23c0.04,0.2-0.03,0.35-0.22,0.45c-0.08,0.15-0.17,0.3-0.25,0.44
	c0.71,1.27-0.25,2.29-0.49,3.42c-0.15,0.09-0.21,0.23-0.2,0.4c-0.8,1.59,0.1,3.43-0.75,5.02c-0.45,0.34-0.46,0.69-0.02,1.04
	c0.69,1.52-0.76,2.96-0.18,4.48c0.07,0.15,0.15,0.29,0.22,0.44c0.19,0.56,0.25,1.11-0.01,1.66c-0.52,0.54-0.5,1.07,0.03,1.6
	c0.24,0.55,0.48,1.11,0.72,1.66c0.12,0.17,0.23,0.35,0.35,0.52c0.09,1,0.04,1.99,0.22,3.03c0.49,2.88,2.21,5.43,2.17,8.41
	c0.11,0.18,0.22,0.36,0.33,0.55c0.06,0.21,0.12,0.43,0.18,0.64c0.11,0.15,0.21,0.29,0.32,0.44c0.07,0.24,0.14,0.49,0.21,0.73
	c-0.02,0.11,0.01,0.19,0.1,0.26c0.6,1.05,0.31,2.24,0.5,3.35c0.14,0.19,0.27,0.39,0.41,0.58c0.03,0.23,0.06,0.45,0.08,0.68
	l0.05,0.23c0.16,0.43,0.32,0.86,0.48,1.29c-0.85,1.57,0.15,2.91,0.55,4.33c0.33,0.91,1.6,1.49,0.97,2.74
	c-0.06,0.04-0.19,0.09-0.18,0.12c0.01,0.13,0.06,0.26,0.09,0.39c0.43,1.47,0.87,2.94,1.3,4.4c-0.75,0.81-0.81,1.55,0.21,2.19
	c0.12,0.22,0.23,0.45,0.35,0.67c-0.02,0.14,0,0.27,0.05,0.39c0.05,0.16,0.06,0.32,0.02,0.48c0.12,0.2,0.23,0.4,0.35,0.6
	c0.05,0.21,0.1,0.43,0.14,0.64c-0.03,0.14,0.01,0.26,0.11,0.35c0.39,0.56,0.26,1.19,0.22,1.81c-0.55,0.68-0.11,0.89,0.48,1.04
	c0.09,0.54,0.19,1.08,0.28,1.61c-0.82,0.79-0.22,0.97,0.47,1.12l0.03,0.12c0.07,0.28,0.15,0.57,0.22,0.85
	c0.68,2.2,1.35,4.41,2.03,6.61c0.13,0.18,0.26,0.36,0.39,0.55c0.19,0.46,0.77,0.75,0.62,1.37l0,0c0.01,0.34,0.03,0.67,0.04,1.01
	c0.13,0.13,0.26,0.26,0.4,0.39c0.64,0.12,0.6,0.67,0.71,1.12c0.12,0.16,0.25,0.32,0.37,0.47c0.27,0.53,0.55,1.05,0.82,1.58
	l-0.04-0.04c0.7,0.69,1.41,1.39,2.11,2.08l-0.02-0.07c-0.03,0.83,0.31,1.35,1.2,1.39l0.18,0.04l0.19-0.02
	c0.22,0.06,0.44,0.11,0.66,0.17c0.15,0.12,0.31,0.24,0.46,0.36c0.21,0.05,0.43,0.1,0.64,0.15c0.87,0.59,1.76,0.54,2.67,0.1
	c0.37-0.09,0.74-0.19,1.11-0.28c0.8,0.03,1.6,0.07,1.67-1.05c0.01-0.28,0.02-0.56,0.02-0.84l-0.01,0.07
	c0.71-0.2,0.39-1.29,1.21-1.39c0.19-0.03,0.32-0.13,0.39-0.31c0.2-0.28,0.41-0.55,0.61-0.83c0.63-0.5,0.67-1.03,0.08-1.59
	c0.51-1.83,1.02-3.66,1.53-5.49c0.57-0.37,0.53-0.73-0.01-1.08c0.08-0.37,0.15-0.74,0.23-1.11c0.06-0.05,0.18-0.12,0.17-0.15
	c-0.04-0.13-0.12-0.25-0.18-0.37c-0.06-0.79-0.12-1.57-0.17-2.36l0-0.21c-0.03-1.73,1.56-2.87,1.67-4.55c0.6-0.36,0.51-0.94,0.5-1.5
	c0.43-0.95,0.86-1.9,1.29-2.85c0.11-0.17,0.21-0.33,0.32-0.5c0.06-0.38,0.12-0.75,0.18-1.13c0.12-0.18,0.24-0.35,0.36-0.53
	c0.26-0.67,1.43-0.65,1.25-1.65c0.72-0.52,1.42-1.07,1.51-2.05c0.04-0.41,0.29-0.6,0.68-0.63c0.12,0.02,0.22-0.03,0.28-0.13
	c0.38-0.15,0.77-0.31,1.15-0.46c0.19-0.13,0.38-0.27,0.57-0.4c1.64-0.17,3.28-0.33,4.92-0.5c0.18,0.12,0.35,0.25,0.53,0.37
	c2.14,1.74,4.53,3.32,4.36,6.59c0.1,0.17,0.21,0.34,0.31,0.51c0.47,0.23,0.66,0.61,0.62,1.12c-0.58,1.1-0.77,2.18,0.11,3.23
	c0.2,0.19,0.4,0.39,0.6,0.58c-0.01,0.17,0.04,0.31,0.17,0.42c-0.29,2.81,1.05,5.44,0.94,8.24c-0.05,0.16-0.06,0.32-0.03,0.48
	c0.36,1.16,0.71,2.31,1.07,3.47c-0.04,0.1-0.04,0.2,0.01,0.31c0.01,0.23,0.02,0.46,0.03,0.69c0.12,0.17,0.24,0.33,0.36,0.5
	c0.31,0.75,0.14,1.48-0.07,2.21c-0.05,0.06-0.15,0.14-0.14,0.17c0.06,0.12,0.16,0.23,0.24,0.35c0.39,0.51,0.78,1.02,1.17,1.53
	c0.32,0.92,0.94,1.37,1.93,1.24c3.77,1.35,5.04,0.91,6.98-2.16c1.11-1.75,2.39-3.39,3.59-5.08c0.04-0.5,0.08-1,0.12-1.51
	c0.05-0.19,0.1-0.38,0.15-0.57c0.11-0.22,0.22-0.45,0.33-0.67c-0.31-0.68,0.43-0.94,0.58-1.44c0.2-0.73,0.4-1.45,0.6-2.18l0.05-0.04
	c0.16-0.19,0.31-0.37,0.47-0.56c0.53-1.69,1.07-3.38,1.6-5.07c0.08-0.08,0.11-0.17,0.07-0.27c0.17-0.94,0.33-1.89,0.5-2.83
	c0.5-0.28,0.56-0.73,0.5-1.24c0.15-0.71,0.29-1.41,0.44-2.12c0.07-0.48,0.14-0.97,0.21-1.45c0.25-0.95,0.5-1.9,0.76-2.84
	c0.09-0.2,0.18-0.4,0.27-0.6c0.09-1.29,1.91-1.7,1.62-3.18c0.59-0.29,0.79-0.63,0.15-1.08c0.16-0.91,0.32-1.83,0.48-2.74
	c0.7-0.36,0.55-1,0.53-1.6c0.04-0.21,0.09-0.43,0.13-0.64c0.52-0.44,0.43-1.03,0.39-1.61c0.06-0.9,0.11-1.79,0.17-2.69
	c0.69-0.14,1.21-0.35,0.45-1.09c0.12-0.4,0.23-0.8,0.35-1.2c-0.08-0.15-0.15-0.3-0.23-0.45c-0.22-0.61-0.22-1.19,0.22-1.71
	c0.13-0.07,0.18-0.18,0.18-0.32c0.05-0.42,0.1-0.84,0.15-1.25c0.07-0.15,0.14-0.3,0.21-0.46c0.14-2.8,0.56-5.56,1.4-8.24
	c1.29-0.36,1.04-1.21,0.68-2.1c-0.07-0.81,0.75-1.74-0.3-2.43c-0.18-0.13-0.36-0.26-0.54-0.39c-3.59,0.03-5.61-2.11-7.04-5.06
	c0.02-0.09,0.02-0.19-0.01-0.28c0.06-0.4,0.12-0.8,0.19-1.21c0.06-0.04,0.18-0.08,0.18-0.12c-0.01-0.13-0.06-0.25-0.09-0.38
	c0.17-0.75,0.35-1.5,0.52-2.25c0.05-0.07,0.14-0.18,0.13-0.2c-0.09-0.12-0.21-0.22-0.32-0.33c-0.77-0.02-1.53-0.04-2.3-0.07
	c-0.51-0.68-1.26-0.42-1.93-0.48c-0.85-1.24-2.72-0.79-3.51-2.11c-0.14-0.2-0.29-0.39-0.43-0.59c-0.44-1.18-1.67-1.95-1.71-3.32
	c-0.13-0.16-0.25-0.32-0.38-0.48c-0.04-0.55-0.09-1.1-0.13-1.66c0.97-1.15,0.43-2.49,0.51-3.76c-0.06-0.88,0.06-1.69,0.87-2.24
	c0.13-0.03,0.21-0.11,0.24-0.25c-0.56-2.31-1.95,0.34-2.76-0.46c-0.17-0.27-0.35-0.27-0.53,0c-0.28,0.04-0.55,0.08-0.83,0.12
	l-0.04,0c-0.46,0.2-0.93,0.4-1.39,0.6c-0.15,0.11-0.31,0.22-0.46,0.33c-0.24,0.07-0.47,0.13-0.71,0.2c-0.18,0.01-0.3,0.1-0.37,0.26
	c-0.19,0.11-0.39,0.21-0.58,0.32c-0.86,0.02-1.89-0.36-2.19,0.95c-1.16,0.78-2.32,1.55-3.47,2.33c-0.18,0.05-0.29,0.16-0.33,0.35
	c-0.36,0.07-0.72,0.13-1.07,0.2c-0.2,0.16-0.39,0.32-0.59,0.48l-0.03,0.03c-0.7,0.02-1.49-0.11-1.56,0.95
	c-0.56,0.05-1.13,0.1-1.69,0.16c-0.62,0.43-1.6,0.25-2,1.16c0.78,0.72,1.54-0.15,2.27,0.04c0.29,0.07,0.59,0.13,0.88,0.2
	c0.16,0.09,0.32,0.17,0.47,0.26c0.2,0.04,0.4,0.09,0.59,0.13c0.25,0.38,0.63,0.45,1.05,0.41c0.74,0.23,1.48,0.45,2.22,0.68
	c0.13,0.13,0.27,0.27,0.4,0.4c0.15,0.56,1.1,0.85,0.53,1.64C58.5,17.52,58.36,17.65,58.22,17.78z"/>
<path class="st0" d="M61.01,4.14c-0.95,1.25-2.28,1.71-3.77,1.83C58.28,4.92,59.52,4.27,61.01,4.14z"/>
<path class="st0" d="M5.35,50.62c0.03,1.12,1.36,2.01,0.56,3.27C4.67,52.97,4.73,51.84,5.35,50.62z"/>
<path class="st0" d="M12.01,78.43c0.85,0.56,1.44,1.18,0.47,2.14C12.02,79.92,11.15,79.36,12.01,78.43z"/>
<path class="st0" d="M73.99,0.78c-0.64,0.49-1.38,0.28-2.09,0.26C72.41-0.48,73.16-0.13,73.99,0.78z"/>
<path class="st0" d="M8.97,65.85c1.02,0.42,1.02,0.98,0.23,1.65C8.54,67.03,8.77,66.44,8.97,65.85z"/>
<path class="st0" d="M39.07,86c-0.65-0.53-0.64-1.05,0-1.58C39.78,84.95,39.79,85.48,39.07,86z"/>
<path class="st0" d="M0.97,27.68c0,0.6,0.15,1.23-0.45,1.66C-0.13,28.58-0.36,27.92,0.97,27.68z"/>
<path class="st0" d="M36.75,6.91c-0.86,0.23-1.37-0.05-1.44-0.98C36.23,5.61,36.3,6.54,36.75,6.91z"/>
<path class="st0" d="M90.38,32.62c-0.67-0.55-0.62-1.08,0.03-1.61C90.91,31.56,90.94,32.1,90.38,32.62z"/>
<path class="st0" d="M86.41,53.83c-0.62-0.8-0.47-1.35,0.54-1.59C86.89,52.8,87.05,53.45,86.41,53.83z"/>
<path class="st0" d="M83.35,66.42c-0.01-0.73-0.13-1.52,0.92-1.66C84.56,65.65,83.97,66.05,83.35,66.42z"/>
<path class="st0" d="M30.4,2.69C29.76,2.7,29.07,2.82,28.78,2C29.62,1.52,30,2.12,30.4,2.69z"/>
<path class="st0" d="M79.51,79.98c-0.02-0.59-0.06-1.19,0.54-1.57C80.84,79.27,79.96,79.55,79.51,79.98z"/>
<path class="st0" d="M11.07,75.66c0.98,0.21,0.85,0.97,0.82,1.67C11.28,76.94,10.94,76.41,11.07,75.66z"/>
<path class="st0" d="M33.52,4.33c-0.51-0.01-1.07,0.13-1.4-0.44C32.93,2.95,33.22,3.66,33.52,4.33z"/>
<path class="st0" d="M48.44,65.86c0.73-0.8,0.96-0.31,1.1,0.42C49.09,66.37,48.64,66.44,48.44,65.86z"/>
<path class="st0" d="M10.41,72.94c0.63,0.11,1.2,0.25,0.57,1.05C10.45,73.82,10.27,73.47,10.41,72.94z"/>
<path class="st0" d="M62.64,2.88C62.6,3.6,62.15,3.8,61.52,3.76C61.54,3.03,61.83,2.63,62.64,2.88z"/>
<path class="st0" d="M82.27,69.15c-0.8-0.64-0.44-0.94,0.33-1.11C82.76,68.48,82.84,68.91,82.27,69.15z"/>
<path class="st0" d="M14.1,2.34c-0.11,0.75-0.61,0.91-1.26,0.81C12.99,2.47,13.41,2.2,14.1,2.34z"/>
<path class="st0" d="M23.9,99.11c0.58-0.76,0.91-0.49,1.11,0.27C24.63,99.34,24.11,99.83,23.9,99.11z"/>
<path class="st0" d="M34.26,97.48c-0.02-0.66,0.27-1.07,0.97-1.11C35.5,97.25,35.06,97.52,34.26,97.48z"/>
<path class="st0" d="M50.62,66.96c0.71,0.01,1.11,0.34,1.1,1.08C51.07,67.96,50.59,67.72,50.62,66.96z"/>
<path class="st0" d="M85.41,59.3c-0.72-0.65-0.29-0.9,0.37-1.08C85.99,58.7,86.03,59.11,85.41,59.3z"/>
<path class="st0" d="M1.72,39.16c0.72,0.12,1.2,0.34,0.46,1.07C1.42,40.13,1.6,39.63,1.72,39.16z"/>
<path class="st0" d="M17.51,93.1c0.58,0.03,0.91,0.32,0.95,0.91C17.84,94.02,17.41,93.84,17.51,93.1z"/>
<path class="st0" d="M55.18,86.01c0.78,0.16,1.14,0.46,0.34,1.11C55.02,86.87,54.98,86.48,55.18,86.01z"/>
<path class="st0" d="M86.01,56.59c-0.69-0.52-0.5-0.86,0.22-1.1C86.53,55.93,86.52,56.31,86.01,56.59z"/>
<path class="st0" d="M86.1,18.78c-0.51-0.34-0.54-0.88-0.57-1.42C86.24,17.63,86.3,18.15,86.1,18.78z"/>
<path class="st0" d="M76.8,88.2c-0.02-0.18-0.02-0.35,0-0.53c0.13,0.12,0.26,0.23,0.38,0.35C77.05,88.08,76.92,88.14,76.8,88.2z"/>
<path class="st0" d="M15.88,90.39c0.13,0.13,0.25,0.25,0.38,0.38C15.89,90.88,15.76,90.76,15.88,90.39z"/>
<path class="st0" d="M30.93,99.12c0.2,0.12,0.39,0.24,0.59,0.35C31.13,99.69,31.04,99.4,30.93,99.12z"/>
<path class="st0" d="M81.71,71.15c0.12-0.12,0.24-0.25,0.36-0.37C82.21,71.15,82.08,71.27,81.71,71.15z"/>
<path class="st0" d="M77.62,1.57c-0.16-0.04-0.25-0.14-0.27-0.29C77.7,1.13,77.83,1.2,77.62,1.57z"/>
<path class="st1" d="M86.61,30.85c1.05,0.69,0.23,1.62,0.3,2.43c-0.82,0.51-0.82,1.28-0.68,2.1c-0.84,2.68-1.25,5.44-1.4,8.24
	c-0.07,0.15-0.14,0.3-0.21,0.46c-0.05,0.42-0.1,0.84-0.15,1.25c-0.1,0.06-0.19,0.12-0.29,0.18c0.04,0.05,0.08,0.1,0.11,0.15
	c-0.45,0.52-0.44,1.1-0.22,1.71c0.08,0.15,0.15,0.3,0.23,0.45c-0.12,0.4-0.23,0.8-0.35,1.2c-0.56,0.19-0.64,0.59-0.45,1.09
	c-0.06,0.9-0.11,1.79-0.17,2.69c-0.5,0.45-1.01,0.9-0.39,1.61c-0.04,0.21-0.09,0.43-0.13,0.64c-0.55,0.41-1.24,0.77-0.53,1.6
	c-0.16,0.91-0.32,1.83-0.48,2.74c-0.54,0.29-0.51,0.67-0.15,1.08c0.29,1.48-1.53,1.89-1.62,3.18c-0.09,0.2-0.18,0.4-0.27,0.6
	c-0.25,0.95-0.5,1.9-0.76,2.84c-0.94,0.36-0.45,0.92-0.21,1.45c-0.15,0.71-0.29,1.41-0.44,2.12c-0.6,0.24-1.36,0.41-0.5,1.24
	c-0.17,0.94-0.33,1.89-0.5,2.83c0,0-0.17,0.12-0.17,0.12s0.1,0.15,0.1,0.15c-0.53,1.69-1.07,3.38-1.6,5.07
	c-0.16,0.19-0.31,0.37-0.47,0.56c0,0-0.05,0.04-0.05,0.04c-1.56,0.35-1.32,1.2-0.6,2.18c-0.15,0.5-0.88,0.76-0.58,1.44
	c-0.11,0.22-0.22,0.45-0.33,0.67c-0.05,0.19-0.1,0.38-0.15,0.57c-0.75,0.44-0.62,0.96-0.12,1.51c-1.2,1.69-2.48,3.33-3.59,5.08
	c-1.94,3.07-3.21,3.51-6.98,2.16c-0.65-0.41-1.09-1.14-1.94-1.24c-0.39-0.51-0.78-1.02-1.17-1.53c-0.03-0.17-0.07-0.35-0.1-0.52
	c0.2-0.73,0.37-1.46,0.07-2.21c0.1-0.33-0.11-0.43-0.36-0.5c-0.01-0.23-0.02-0.46-0.03-0.69c0.06-0.03,0.11-0.05,0.17-0.08
	c-0.06-0.08-0.11-0.15-0.17-0.23c-0.36-1.16-0.71-2.31-1.07-3.47c0.07-0.04,0.2-0.1,0.2-0.12c-0.04-0.13-0.11-0.24-0.17-0.36
	c0.1-2.79-1.23-5.42-0.94-8.24c0.07-0.05,0.13-0.1,0.2-0.15c-0.12-0.09-0.24-0.18-0.36-0.28c-0.2-0.19-0.4-0.39-0.6-0.58
	c-0.86-1.05,1.4-2.2-0.11-3.23c0.04-0.51-0.15-0.89-0.62-1.12c-0.1-0.17-0.21-0.34-0.31-0.51c0.17-3.27-2.21-4.85-4.36-6.59
	c-0.07-0.27-0.17-0.51-0.53-0.37c-1.64,0.17-3.28,0.33-4.92,0.5c-0.36-0.11-0.48,0.12-0.57,0.4c-0.38,0.15-0.77,0.31-1.15,0.46
	c0,0-0.19-0.05-0.19-0.05l-0.1,0.18c-0.39,0.03-0.64,0.22-0.68,0.63c-1.2,0.17-1.43,1.05-1.51,2.05c0.18,1-0.99,0.98-1.25,1.65
	c-0.27,0.07-0.53,0.15-0.36,0.53c-0.06,0.38-0.12,0.75-0.18,1.13c-0.11,0.17-0.21,0.33-0.32,0.5c-0.43,0.95-0.86,1.9-1.29,2.85
	c-0.44,0.41-1.08,0.75-0.5,1.5c-0.1,1.68-1.7,2.82-1.67,4.55c0,0-0.2,0.1-0.2,0.1l0.2,0.11c0.06,0.79,0.12,1.57,0.17,2.36
	c-0.04,0.17-0.04,0.34,0.01,0.51c-0.08,0.37-0.15,0.74-0.23,1.11c-0.57,0.37-0.54,0.73,0.01,1.08c-0.51,1.83-1.02,3.66-1.53,5.49
	c-0.5,0.51-0.44,1.04-0.08,1.59c-0.2,0.28-0.41,0.55-0.61,0.83c-0.13,0.1-0.26,0.21-0.39,0.31c-0.82,0.1-0.5,1.19-1.21,1.39
	c-0.05,0-0.11,0.01-0.16,0.01c0.06-0.03,0.11-0.05,0.17-0.08c-0.01,0.28-0.02,0.56-0.02,0.84c-0.64,0.23-1.31,0.39-1.67,1.05
	c-0.37,0.09-0.74,0.19-1.11,0.28c-0.86-0.89-1.77-0.26-2.67-0.1c-0.21-0.05-0.43-0.1-0.64-0.15c-0.03-0.28-0.12-0.48-0.46-0.36
	c-0.22-0.06-0.44-0.11-0.66-0.17c-0.11-0.28-0.24-0.26-0.37-0.01c-0.89-0.04-1.23-0.56-1.2-1.39c0.06,0,0.11-0.01,0.17-0.01
	c-0.05,0.03-0.1,0.05-0.16,0.08c-0.7-0.69-1.41-1.39-2.11-2.08c0,0,0.07-0.02,0.07-0.02l-0.03,0.07c-0.27-0.53-0.55-1.05-0.82-1.58
	c-0.12-0.16-0.25-0.32-0.37-0.47c-0.11-0.45-0.07-1.01-0.71-1.12c-0.13-0.13-0.26-0.26-0.4-0.39c-0.01-0.34-0.03-0.67-0.04-1.01
	c0.05-0.02,0.09-0.05,0.14-0.07c-0.05,0.02-0.09,0.05-0.14,0.07c0.15-0.62-0.43-0.9-0.62-1.37c0.11-0.35-0.11-0.47-0.39-0.55
	c-0.68-2.2-1.35-4.41-2.03-6.61c0.4-0.41-0.03-0.6-0.22-0.85c0,0-0.03-0.12-0.03-0.12c0.09-0.48-0.04-0.86-0.47-1.12
	c-0.09-0.54-0.19-1.08-0.28-1.61c-0.16-0.35-0.32-0.7-0.48-1.04c0.04-0.62,0.17-1.24-0.22-1.81c0,0,0.09-0.2,0.09-0.2l-0.2-0.15
	c-0.05-0.21-0.1-0.43-0.14-0.64c-0.12-0.2-0.23-0.4-0.35-0.6c0.04-0.16,0.03-0.32-0.02-0.48c0.11-0.09,0.21-0.17,0.32-0.26
	c-0.12-0.05-0.24-0.09-0.37-0.14c-0.12-0.22-0.23-0.45-0.35-0.67c-0.11-0.72,0.63-1.53-0.21-2.19c-0.43-1.47-0.87-2.94-1.3-4.4
	c0.13-0.15,0.16-0.32,0.09-0.51c0.63-1.25-0.64-1.83-0.97-2.74c0.07-1.47,0.38-2.98-0.55-4.33c-0.16-0.43-0.32-0.86-0.48-1.29
	c0,0,0.1-0.12,0.1-0.12l-0.14-0.11c-0.03-0.23-0.06-0.45-0.08-0.68c0.1-0.36-0.13-0.49-0.41-0.58c-0.19-1.11,0.1-2.3-0.5-3.35
	c0,0,0.09-0.16,0.09-0.16l-0.19-0.09c-0.07-0.24-0.14-0.49-0.21-0.73c0.13-0.31-0.07-0.4-0.32-0.44c-0.06-0.21-0.12-0.43-0.18-0.64
	c0.18-0.35-0.09-0.44-0.33-0.55c0.05-2.99-1.67-5.53-2.17-8.41c-0.18-1.04-0.13-2.02-0.22-3.03c0.13-0.34,0.08-0.56-0.35-0.52
	c-0.24-0.55-0.48-1.11-0.72-1.66c-0.01-0.53-0.02-1.06-0.03-1.6c0.26-0.55,0.2-1.11,0.01-1.66c-0.07-0.15-0.15-0.29-0.22-0.44
	c-0.58-1.52,0.88-2.96,0.18-4.48c0.01-0.35,0.01-0.69,0.02-1.04c0.84-1.58-0.06-3.43,0.75-5.02c0.07-0.13,0.13-0.27,0.2-0.4
	c0.24-1.13,1.2-2.15,0.49-3.42c0.19-0.09,0.28-0.23,0.25-0.44c0.18-0.1,0.26-0.25,0.22-0.45c0.49-0.27,0.91-0.6,0.94-1.23
	c0,0,0.06-0.1,0.06-0.1c0,0,0.22-0.11,0.22-0.11s-0.06-0.22-0.06-0.22c0.33-0.28,0.65-0.55,0.98-0.83c0.31,0.08,0.42-0.03,0.34-0.34
	c0.28-0.59,0.61-1.14,1.31-1.33c0.39,0.19,0.44-0.02,0.38-0.34c0.78-0.77,1.56-1.55,2.35-2.32c0.4,0.03,0.77,0.01,1-0.4
	c0.22-0.11,0.45-0.22,0.67-0.33c0.19,0.05,0.31-0.02,0.35-0.22c0.6-0.05,1.2-0.1,1.8-0.16c0.36,0.16,0.45-0.09,0.52-0.36
	c2.85-1.26,5.84-0.96,8.81-0.77c0.59,0.59,1.36,0.57,2.11,0.62c0.18,0.05,0.37,0.1,0.55,0.15c0.19,0.17,0.37,0.34,0.56,0.52
	c0.58,0.73,1.34,1.09,2.28,1.09c0.03,0.26,0.12,0.44,0.43,0.36c0.72,0.62,1.45,1.24,2.17,1.86c0.17,1.38,1.43,0.98,2.22,1.35
	c0.5,0.83,1.2,1.35,2.2,1.35c0.18,0.15,0.35,0.29,0.53,0.44c0.21,0.21,0.42,0.43,0.63,0.64c0.01,0.28,0.09,0.47,0.43,0.35
	c1.47-0.07,2.37,1.58,3.91,1.28c0.15,0.12,0.3,0.24,0.45,0.36c0.22,0.06,0.44,0.12,0.66,0.18c0.14,0.09,0.27,0.19,0.41,0.28
	c2.29,1.76,5.11,1.27,7.69,1.82c0.63,0.49,1.22,1.13,2.14,0.61c1.01-0.01,2.01-0.02,3.02-0.03c0,0,0.01,0.23,0.01,0.23l-0.05-0.23
	l0.16,0.05c0,0,0.11-0.12,0.11-0.12c0.35,0.09,0.53,0.01,0.42-0.39c0.57-0.79-0.38-1.08-0.53-1.64c0.11-0.37-0.02-0.51-0.4-0.4
	c-0.74-0.23-1.48-0.45-2.22-0.68c-0.22-0.46-0.61-0.49-1.05-0.41c-0.2-0.04-0.4-0.09-0.59-0.13c-0.16-0.09-0.32-0.17-0.47-0.26
	c-0.29-0.07-0.59-0.13-0.88-0.2c-0.34-0.34-0.61-0.7-0.27-1.2c0.56-0.05,1.13-0.1,1.69-0.16c1.03,0.52,1.12-0.51,1.56-0.95
	c0,0,0.03-0.03,0.03-0.03c0.2-0.16,0.39-0.32,0.59-0.48c0.36-0.07,0.72-0.13,1.07-0.2c0.32,0.08,0.44-0.02,0.33-0.35
	c1.16-0.78,2.32-1.55,3.47-2.33c0.93,0.13,1.48-0.58,2.19-0.95c0.19-0.11,0.39-0.21,0.58-0.32c0.19,0.01,0.31-0.08,0.37-0.26
	c0.24-0.07,0.47-0.13,0.71-0.2c0.15-0.11,0.31-0.22,0.46-0.33c0.46-0.2,0.93-0.4,1.39-0.6c0,0,0.04,0.2,0.04,0.2l0.01-0.2
	c0.28-0.04,0.55-0.08,0.83-0.12c0.18,0,0.35,0,0.53,0c0.81,0.8,2.2-1.85,2.76,0.46c0,0-0.19,0.05-0.19,0.05l-0.05,0.19
	c-0.8,0.55-0.93,1.36-0.87,2.24c0.19,1.3-1.64,2.33-0.51,3.76c0.04,0.55,0.09,1.1,0.13,1.66c-0.1,0.34,0.1,0.44,0.38,0.48
	c0.05,1.38,1.27,2.15,1.71,3.32c-0.11,0.39,0.12,0.52,0.43,0.59c0.8,1.33,2.66,0.87,3.51,2.11c0.5,0.72,1.11,1.03,1.93,0.48
	c0.77,0.02,1.53,0.04,2.3,0.07c0.07,0.18,0.13,0.36,0.2,0.54c-0.17,0.75-0.35,1.5-0.52,2.25c-0.13,0.15-0.16,0.31-0.09,0.49
	c-0.06,0.4-0.12,0.8-0.19,1.21c-0.13,0.06-0.27,0.12-0.4,0.18c0.14,0.03,0.28,0.07,0.42,0.1c1.44,2.95,3.46,5.09,7.04,5.06
	C86.25,30.59,86.43,30.72,86.61,30.85z M64.92,34.3c2.22-1.35,3.96-2.2,5.19-3.73c0.47-0.59,0.93-1.25,0.47-1.96
	c-0.5-0.77-1.27-0.67-2.14-0.47c-3.42,0.79-5.83,3.28-8.59,5.12c-1.57,1.05-0.97,3.09,0.9,3.53c3.48,0.82,6.84,2.23,10.47,2.35
	c0.95,0.03,2.04-0.14,2.08-1.23c0.04-0.92,0.1-2.15-1.49-2.4C69.7,35.17,67.7,34.2,64.92,34.3z M28.48,36.29
	c-1.98,0.87-3.82,1.28-5.24,2.48c-0.76,0.65-1.66,1.47-0.8,2.49c0.68,0.81,1.72,0.87,2.67,0.14c0.49-0.37,1.02-0.93,1.56-0.97
	c2.82-0.16,4.83-1.91,6.83-3.51c1.36-1.09,1.16-2.1-0.68-2.92c-2.48-1.11-5.31-1.39-7.5-3.15c-0.94-0.75-2.04-0.37-3.08-0.41
	c-0.84-0.03-1.41,0.36-1.52,1.2c-0.1,0.78,0.28,1.14,1.03,1.6C23.78,34.49,26.05,35.17,28.48,36.29z M46.34,39.36
	c-1.04-0.03-2.25-0.5-3.08,0.39c-0.68,0.73-2.58,0.56-1.87,2.4c0.67,1.74,1.98,1.62,3.33,1.11c1.23-0.46,2.48-0.28,3.73-0.34
	c1.16-0.06,2.25,0.6,3.46,0.12c1.03-0.4,1.82-0.87,1.69-2.09c-0.12-1.18-0.88-1.63-2.03-1.7C49.83,39.15,48.09,39.02,46.34,39.36z"
	/>
<path class="st0" d="M10.21,54.99c0.93,1.35,0.61,2.85,0.55,4.33C10.36,57.9,9.36,56.56,10.21,54.99z"/>
<path class="st0" d="M69.22,11.92c-1.13-1.43,0.7-2.46,0.51-3.76C69.64,9.43,70.19,10.78,69.22,11.92z"/>
<path class="st0" d="M56.44,70.83c1.5,1.03-0.76,2.18,0.11,3.23C55.67,73.01,55.86,71.93,56.44,70.83z"/>
<path class="st0" d="M12.93,66.98c0.84,0.65,0.1,1.46,0.21,2.19C12.12,68.53,12.18,67.79,12.93,66.98z"/>
<path class="st0" d="M52.23,12.47c-0.34,0.5-0.07,0.85,0.27,1.2c-0.73-0.19-1.49,0.68-2.27-0.04C50.62,12.72,51.6,12.9,52.23,12.47z
	"/>
<path class="st0" d="M86.23,35.38c-0.14-0.82-0.14-1.59,0.68-2.1C87.27,34.17,87.53,35.02,86.23,35.38z"/>
<path class="st0" d="M54.97,17.88c-0.92,0.52-1.51-0.12-2.14-0.61C53.82,16.51,54.34,17.39,54.97,17.88z"/>
<path class="st0" d="M35.92,10.57c-0.79-0.37-2.05,0.03-2.22-1.35C34.65,9.32,35.55,9.52,35.92,10.57z"/>
<path class="st0" d="M41.51,66.41c0.08-1,0.31-1.88,1.51-2.05C42.93,65.34,42.24,65.89,41.51,66.41z"/>
<path class="st0" d="M60.91,93c0.85,0.1,1.29,0.83,1.94,1.24C61.85,94.37,61.23,93.92,60.91,93z"/>
<path class="st0" d="M26.64,96.01c0.9-0.16,1.81-0.79,2.67,0.1C28.4,96.55,27.51,96.6,26.64,96.01z"/>
<path class="st0" d="M77.32,20.56c-0.82,0.55-1.43,0.25-1.93-0.48C76.06,20.15,76.8,19.88,77.32,20.56z"/>
<path class="st0" d="M34.31,91.46c-0.36-0.55-0.42-1.08,0.08-1.59C34.98,90.43,34.93,90.96,34.31,91.46z"/>
<path class="st0" d="M74.59,82.82c-0.72-0.98-0.95-1.83,0.6-2.18C74.99,81.37,74.79,82.1,74.59,82.82z"/>
<path class="st0" d="M27.71,5.25c-0.75-0.05-1.52-0.03-2.11-0.62C26.53,4.06,27.08,4.8,27.71,5.25z"/>
<path class="st0" d="M55.47,11.37c-0.44,0.45-0.53,1.47-1.56,0.95C53.98,11.26,54.77,11.39,55.47,11.37z"/>
<path class="st0" d="M63.16,7.03c-0.71,0.37-1.26,1.08-2.19,0.95C61.27,6.67,62.3,7.05,63.16,7.03z"/>
<path class="st0" d="M82.29,56.62c-0.72-0.83-0.02-1.19,0.53-1.6C82.83,55.62,82.98,56.26,82.29,56.62z"/>
<path class="st0" d="M30.42,95.82c0.36-0.67,1.03-0.83,1.67-1.05C32.02,95.89,31.22,95.86,30.42,95.82z"/>
<path class="st0" d="M82.95,54.39c-0.62-0.72-0.12-1.17,0.39-1.61C83.37,53.35,83.47,53.94,82.95,54.39z"/>
<path class="st0" d="M37.62,74.56c-0.58-0.75,0.05-1.09,0.5-1.5C38.13,73.62,38.22,74.21,37.62,74.56z"/>
<path class="st0" d="M77.88,71.87c-0.86-0.82-0.11-1,0.5-1.24C78.44,71.14,78.38,71.59,77.88,71.87z"/>
<path class="st0" d="M6.89,12.44c-0.03,0.63-0.45,0.96-0.94,1.23C5.85,12.95,6.15,12.53,6.89,12.44z"/>
<path class="st0" d="M14.39,74.11c0.16,0.35,0.32,0.7,0.48,1.04C14.28,75.01,13.83,74.79,14.39,74.11z"/>
<path class="st0" d="M15.15,76.77c0.43,0.26,0.56,0.64,0.47,1.12C14.93,77.75,14.33,77.56,15.15,76.77z"/>
<path class="st0" d="M81.66,60.44c-0.37-0.42-0.4-0.79,0.15-1.08C82.45,59.82,82.25,60.16,81.66,60.44z"/>
<path class="st0" d="M35.91,84.39c-0.56-0.35-0.58-0.71-0.01-1.08C36.44,83.66,36.49,84.02,35.91,84.39z"/>
<path class="st0" d="M83.5,50.09c-0.19-0.5-0.11-0.89,0.45-1.09C84.71,49.74,84.19,49.95,83.5,50.09z"/>
<path class="st0" d="M78.81,68.51c-0.25-0.53-0.74-1.09,0.21-1.45C78.95,67.55,78.88,68.03,78.81,68.51z"/>
<path class="st0" d="M4.05,31.03c0.01,0.53,0.02,1.06,0.03,1.6C3.55,32.1,3.53,31.57,4.05,31.03z"/>
<path class="st0" d="M73.41,87.01c-0.5-0.55-0.62-1.06,0.12-1.51C73.49,86,73.45,86.5,73.41,87.01z"/>
<path class="st0" d="M13.45,6.46c-0.22,0.41-0.6,0.43-1,0.4C12.69,6.47,13.05,6.43,13.45,6.46z"/>
<path class="st0" d="M4.03,23.4c-0.01,0.35-0.01,0.69-0.02,1.04C3.57,24.09,3.58,23.74,4.03,23.4z"/>
<path class="st0" d="M54.45,14.26c0.43-0.08,0.83-0.05,1.05,0.41C55.08,14.71,54.7,14.65,54.45,14.26z"/>
<path class="st0" d="M15.65,78.02c0.19,0.25,0.62,0.44,0.22,0.85C15.8,78.58,15.72,78.3,15.65,78.02z"/>
<path class="st0" d="M18.95,88.4c0.13,0.13,0.26,0.26,0.4,0.39C19.21,88.66,19.08,88.53,18.95,88.4z"/>
<path class="st0" d="M59.33,88.25c0.25,0.07,0.46,0.17,0.36,0.5C59.58,88.58,59.46,88.41,59.33,88.25z"/>
<path class="st0" d="M20.06,89.91c0.12,0.16,0.25,0.32,0.37,0.47C20.31,90.22,20.18,90.07,20.06,89.91z"/>
<path class="st0" d="M59.3,87.25c0.06,0.08,0.11,0.15,0.17,0.23c-0.06,0.03-0.11,0.05-0.17,0.08C59.27,87.46,59.27,87.35,59.3,87.25
	z"/>
<path class="st0" d="M59.63,90.95c0.03,0.17,0.07,0.35,0.1,0.52c-0.08-0.11-0.18-0.22-0.24-0.35C59.48,91.1,59.58,91.01,59.63,90.95
	z"/>
<polygon class="st0" points="21.26,91.96 21.29,91.89 21.21,91.91 "/>
<path class="st0" d="M84.3,47.8c-0.08-0.15-0.15-0.3-0.23-0.45C84.15,47.5,84.23,47.65,84.3,47.8z"/>
<path class="st0" d="M18.91,87.39c0.05-0.02,0.09-0.05,0.14-0.07C19,87.34,18.96,87.37,18.91,87.39
	C18.91,87.39,18.91,87.39,18.91,87.39z"/>
<path class="st0" d="M17.9,85.48c0.28,0.08,0.5,0.2,0.39,0.55C18.16,85.84,18.03,85.66,17.9,85.48z"/>
<path class="st0" d="M23.32,93.99c0.05-0.03,0.1-0.05,0.16-0.08c-0.06,0-0.12,0.01-0.17,0.01C23.31,93.92,23.32,93.99,23.32,93.99z"
	/>
<path class="st0" d="M32.11,93.92c-0.06,0.03-0.11,0.05-0.17,0.08c0.05,0,0.11-0.01,0.16-0.01C32.1,93.99,32.11,93.92,32.11,93.92z"
	/>
<path class="st0" d="M24.51,95.32c0.13-0.24,0.26-0.27,0.37,0.01l-0.19,0.02L24.51,95.32z"/>
<path class="st0" d="M73.68,84.93c0.11-0.22,0.22-0.45,0.33-0.67C73.9,84.49,73.79,84.71,73.68,84.93z"/>
<path class="st0" d="M58.26,83.3c0.06,0.12,0.13,0.24,0.17,0.36c0.01,0.02-0.13,0.08-0.2,0.12C58.2,83.62,58.21,83.46,58.26,83.3z"
	/>
<path class="st0" d="M25.54,95.49c0.34-0.12,0.43,0.09,0.46,0.36C25.85,95.74,25.69,95.61,25.54,95.49z"/>
<path class="st0" d="M36.13,82.2c-0.05-0.17-0.05-0.34-0.01-0.51c0.06,0.12,0.14,0.24,0.18,0.37C36.31,82.08,36.19,82.15,36.13,82.2
	z"/>
<path class="st0" d="M75.25,80.61c0.16-0.19,0.31-0.37,0.47-0.56C75.56,80.23,75.4,80.42,75.25,80.61z"/>
<path class="st0" d="M86.61,30.85c-0.18-0.13-0.36-0.26-0.54-0.39C86.25,30.59,86.43,30.72,86.61,30.85z"/>
<path class="st0" d="M3.83,28.92c0.07,0.15,0.15,0.29,0.22,0.44C3.98,29.22,3.91,29.07,3.83,28.92z"/>
<polygon class="st0" points="35.95,79.33 35.75,79.22 35.95,79.12 "/>
<path class="st0" d="M77.31,74.98l-0.1-0.15c0,0,0.17-0.12,0.17-0.12C77.42,74.81,77.39,74.9,77.31,74.98z"/>
<path class="st0" d="M79.03,25.4c-0.14-0.03-0.28-0.07-0.42-0.1c0.13-0.06,0.27-0.12,0.4-0.18C79.05,25.21,79.06,25.3,79.03,25.4z"
	/>
<path class="st0" d="M79.21,23.91c-0.07-0.18-0.04-0.35,0.09-0.49c0.03,0.13,0.08,0.25,0.09,0.38
	C79.39,23.83,79.27,23.87,79.21,23.91z"/>
<path class="st0" d="M57.15,74.64c0.12,0.09,0.24,0.18,0.36,0.28c-0.07,0.05-0.13,0.1-0.2,0.15C57.19,74.95,57.14,74.81,57.15,74.64
	z"/>
<path class="st0" d="M79.81,21.17c-0.07-0.18-0.13-0.36-0.2-0.54c0.11,0.11,0.23,0.21,0.32,0.33
	C79.96,20.98,79.86,21.09,79.81,21.17z"/>
<path class="st0" d="M14.05,71.95l0.2,0.15c0,0-0.09,0.2-0.09,0.2C14.06,72.21,14.02,72.09,14.05,71.95z"/>
<polygon class="st0" points="57.95,17.85 58,18.09 57.99,17.85 "/>
<path class="st0" d="M4.98,17.98c-0.07,0.13-0.13,0.27-0.2,0.4C4.77,18.21,4.84,18.08,4.98,17.98z"/>
<path class="st0" d="M71.87,17.97c-0.32-0.07-0.55-0.2-0.43-0.59C71.59,17.58,71.73,17.78,71.87,17.97z"/>
<path class="st0" d="M58.64,17.39c0.11,0.4-0.07,0.48-0.42,0.39C58.36,17.65,58.5,17.52,58.64,17.39z"/>
<path class="st0" d="M4.8,34.29c0.43-0.04,0.48,0.18,0.35,0.52C5.04,34.64,4.92,34.46,4.8,34.29z"/>
<path class="st0" d="M57.71,15.35c0.37-0.11,0.51,0.02,0.4,0.4C57.98,15.62,57.84,15.49,57.71,15.35z"/>
<path class="st0" d="M45.14,15.45c-0.14-0.09-0.27-0.19-0.41-0.28C44.93,15.18,45.06,15.28,45.14,15.45z"/>
<path class="st0" d="M44.07,15c-0.15-0.12-0.3-0.24-0.45-0.36C43.77,14.76,43.92,14.88,44.07,15z"/>
<path class="st0" d="M13.56,70.72c0.12,0.2,0.23,0.4,0.35,0.6C13.79,71.11,13.68,70.92,13.56,70.72z"/>
<path class="st0" d="M5.72,14.12c0.03,0.21-0.06,0.36-0.25,0.44C5.56,14.42,5.64,14.27,5.72,14.12z"/>
<path class="st0" d="M69.73,14.06c-0.27-0.05-0.48-0.15-0.38-0.48C69.48,13.74,69.6,13.9,69.73,14.06z"/>
<path class="st0" d="M53.38,13.87c0.16,0.09,0.32,0.17,0.47,0.26C53.69,14.04,53.54,13.96,53.38,13.87z"/>
<path class="st0" d="M39.7,13.35c-0.34,0.12-0.42-0.07-0.43-0.35C39.42,13.12,39.56,13.24,39.7,13.35z"/>
<path class="st0" d="M39.4,70.22c0.11-0.17,0.21-0.33,0.32-0.5C39.62,69.88,39.51,70.05,39.4,70.22z"/>
<path class="st0" d="M13.49,69.84c0.12,0.05,0.24,0.09,0.37,0.14c-0.11,0.09-0.21,0.17-0.32,0.26
	C13.49,70.11,13.47,69.97,13.49,69.84z"/>
<path class="st0" d="M38.65,12.36c-0.18-0.15-0.35-0.29-0.53-0.44C38.3,12.07,38.48,12.21,38.65,12.36z"/>
<path class="st0" d="M7.11,12.02l0.06,0.22c0,0-0.22,0.11-0.22,0.11C6.94,12.2,6.99,12.09,7.11,12.02z"/>
<path class="st0" d="M55.51,69.2c0.1,0.17,0.21,0.34,0.31,0.51C55.72,69.54,55.61,69.37,55.51,69.2z"/>
<path class="st0" d="M56.09,10.86c-0.2,0.16-0.39,0.32-0.59,0.48C55.7,11.18,55.9,11.02,56.09,10.86z"/>
<path class="st0" d="M8.42,10.85c0.08,0.3-0.03,0.42-0.34,0.34C8.13,11.01,8.24,10.9,8.42,10.85z"/>
<path class="st0" d="M57.5,10.31c0.12,0.33-0.01,0.43-0.33,0.35C57.21,10.48,57.31,10.36,57.5,10.31z"/>
<path class="st0" d="M39.91,68.59c-0.18-0.37,0.09-0.45,0.36-0.53C40.14,68.24,40.03,68.41,39.91,68.59z"/>
<path class="st0" d="M10.11,9.18c0.06,0.32,0.02,0.53-0.38,0.34C9.79,9.34,9.92,9.23,10.11,9.18z"/>
<path class="st0" d="M8.06,47.44c0.25,0.04,0.45,0.13,0.32,0.44C8.27,47.73,8.16,47.58,8.06,47.44z"/>
<path class="st0" d="M31.52,7.37c-0.31,0.08-0.41-0.1-0.43-0.36C31.23,7.13,31.38,7.25,31.52,7.37z"/>
<path class="st0" d="M64.11,6.45c-0.05,0.18-0.18,0.27-0.37,0.26C63.81,6.55,63.93,6.46,64.11,6.45z"/>
<path class="st0" d="M79.77,64.22c0.09-0.2,0.18-0.4,0.27-0.6C79.95,63.82,79.86,64.02,79.77,64.22z"/>
<path class="st0" d="M43.71,63.73l0.1-0.18c0,0,0.19,0.05,0.19,0.05C43.92,63.7,43.83,63.75,43.71,63.73z"/>
<path class="st0" d="M65.27,5.92c-0.15,0.11-0.31,0.22-0.46,0.33C64.97,6.14,65.12,6.03,65.27,5.92z"/>
<path class="st0" d="M14.47,5.91c-0.04,0.2-0.15,0.27-0.35,0.22C14.19,5.98,14.31,5.91,14.47,5.91z"/>
<path class="st0" d="M70.59,5.92l0.05-0.19c0,0,0.19-0.05,0.19-0.05C70.81,5.81,70.73,5.89,70.59,5.92z"/>
<polygon class="st0" points="66.71,5.33 66.7,5.52 66.67,5.33 "/>
<path class="st0" d="M45.14,63.14c0.09-0.28,0.21-0.51,0.57-0.4C45.52,62.87,45.33,63,45.14,63.14z"/>
<path class="st0" d="M50.63,62.23c0.36-0.14,0.45,0.1,0.53,0.37C50.98,62.48,50.8,62.36,50.63,62.23z"/>
<path class="st0" d="M28.81,5.92c-0.19-0.17-0.37-0.34-0.56-0.52C28.44,5.58,28.63,5.75,28.81,5.92z"/>
<path class="st0" d="M16.78,5.39c-0.07,0.27-0.15,0.51-0.52,0.36C16.44,5.63,16.61,5.51,16.78,5.39z"/>
<path class="st0" d="M68.07,5.21c-0.18,0-0.35,0-0.53,0C67.71,4.94,67.89,4.94,68.07,5.21z"/>
<path class="st0" d="M11.72,62.06c0.07,0.19,0.04,0.36-0.09,0.51c-0.03-0.13-0.08-0.26-0.09-0.39
	C11.53,62.15,11.66,62.1,11.72,62.06z"/>
<path class="st0" d="M84.63,44.07c0.07-0.15,0.14-0.3,0.21-0.46C84.77,43.77,84.7,43.92,84.63,44.07z"/>
<path class="st0" d="M84.3,45.65c-0.04-0.05-0.08-0.1-0.11-0.15c0.1-0.06,0.19-0.12,0.29-0.18C84.48,45.47,84.42,45.58,84.3,45.65z"
	/>
<polygon class="st0" points="9.68,53.47 9.82,53.58 9.73,53.7 "/>
<path class="st0" d="M9.19,52.22c0.28,0.09,0.51,0.22,0.41,0.58C9.46,52.6,9.32,52.41,9.19,52.22z"/>
<path class="st0" d="M7.54,46.25c0.24,0.11,0.51,0.19,0.33,0.55C7.76,46.61,7.65,46.43,7.54,46.25z"/>
<path class="st0" d="M8.58,48.61l0.19,0.09c0,0-0.09,0.16-0.09,0.16C8.6,48.8,8.56,48.72,8.58,48.61z"/>
<path class="st0" d="M33.31,92.6c0.13-0.1,0.26-0.21,0.39-0.31C33.63,92.47,33.5,92.57,33.31,92.6z"/>
<path class="st0" d="M64.92,34.3c2.77-0.09,4.77,0.88,6.89,1.21c1.59,0.25,1.53,1.47,1.49,2.4c-0.04,1.09-1.14,1.26-2.08,1.23
	c-3.64-0.12-6.99-1.53-10.47-2.35c-1.87-0.44-2.47-2.49-0.9-3.53c2.76-1.84,5.17-4.33,8.59-5.12c0.87-0.2,1.64-0.31,2.14,0.47
	c0.46,0.71,0,1.38-0.47,1.96C68.88,32.1,67.14,32.95,64.92,34.3z"/>
<path class="st0" d="M28.48,36.29c-2.43-1.12-4.7-1.79-6.73-3.04c-0.75-0.46-1.13-0.82-1.03-1.6c0.11-0.84,0.69-1.23,1.52-1.2
	c1.04,0.04,2.14-0.35,3.08,0.41c2.2,1.76,5.02,2.04,7.5,3.15c1.84,0.82,2.04,1.83,0.68,2.92c-2,1.61-4.01,3.35-6.83,3.51
	c-0.54,0.03-1.07,0.59-1.56,0.97c-0.95,0.73-1.99,0.66-2.67-0.14c-0.86-1.02,0.03-1.85,0.8-2.49
	C24.66,37.57,26.51,37.16,28.48,36.29z"/>
<path class="st0" d="M46.34,39.36c1.75-0.34,3.49-0.21,5.24-0.11c1.14,0.06,1.9,0.52,2.03,1.7c0.13,1.22-0.67,1.69-1.69,2.09
	c-1.21,0.47-2.31-0.18-3.46-0.12c-1.25,0.06-2.49-0.11-3.73,0.34c-1.35,0.5-2.66,0.62-3.33-1.11c-0.71-1.84,1.19-1.67,1.87-2.4
	C44.09,38.86,45.3,39.33,46.34,39.36z"/>
</svg>
