<?xml version="1.0" encoding="utf-8"?>
<!-- Generator: Adobe Illustrator 27.8.0, SVG Export Plug-In . SVG Version: 6.00 Build 0)  -->
<svg version="1.1" id="Layer_1" xmlns="http://www.w3.org/2000/svg" xmlns:xlink="http://www.w3.org/1999/xlink" x="0px" y="0px"
	 viewBox="0 0 89.88 99.15" style="enable-background:new 0 0 89.88 99.15;" xml:space="preserve">
<style type="text/css">
	.st0{fill:#871933;}
	.st1{fill:#ECEAE9;}
	.st2{fill:#BE6F65;}
	.st3{fill:#E8D9D7;}
	.st4{fill:#BC6356;}
	.st5{fill:#DEBEBA;}
	.st6{fill:#D2A19A;}
	.st7{fill:#CA8C84;}
	.st8{fill:#C57C72;}
</style>
<path class="st0" d="M82.25,66.91c0.12,2.59-1.26,4.85-1.57,7.39c-0.56,4.47-2.71,8.54-4.17,12.75c-1.59,4.59-4.68,8.64-9.06,11.33
	c-1.11,0.68-2-0.44-3.08-0.46c-3.33-0.05-6.17-1.56-7.61-4.43c-1.02-2.03-0.88-4.61-1.71-6.87c-1.34-3.65-1.09-7.61-1.88-11.34
	c-0.61-2.87-0.45-6.14-2.86-8.52c-1.86-1.85-4.87-1.78-6.04,0.56c-1.77,3.54-3.34,7.2-4.84,10.87c-0.7,1.72-0.32,3.7-0.4,5.49
	c-0.2,4.67-1.7,8.78-4.17,12.5c-1.07,1.62-2.98,2.73-5.3,2.92c-5.66,0.46-10.37-2.65-13.12-7.66c-2.1-3.83-3.46-7.91-4.6-11.95
	c-1.58-5.65-3.11-11.36-4.18-17.18c-0.45-2.48-0.95-5.06-1.79-7.57C3.99,49.1,2.97,43.17,1.3,37.45c-0.82-2.82-1.17-5.61-1.25-8.5
	c-0.17-6.67-0.09-13.48,3.54-19.21C6.09,5.8,9.83,2.79,14.83,1.4c3.89-1.09,7.54-1.31,11.43-0.69c4.5,0.71,7.84,3.56,11.2,6.13
	c4.58,3.5,9.67,4.13,14.53,1.25c3.23-1.91,6.29-4.63,9.72-5.51c3.06-0.79,5.96-2.22,9.39-2.52c7.09-0.62,10.6,3.7,14.55,7.89
	c3.35,3.54,3.3,8.29,3.72,12.64c0.47,4.92,0.84,9.94,0.09,14.88c-0.43,2.86-0.27,5.93-1.16,8.53c-2.19,6.42-1.98,13.25-3.99,19.67
	c-0.37,1.18-0.82,2.1-1.84,2.74c-0.11-1.71,2.05-3.75-0.74-5.06c0.11-0.57,0.35-1.18-0.41-1.52c0-0.17,0.01-0.35,0.04-0.52
	c0.93-0.77,0.4-1.79,0.46-2.71c1.22-3.92,2.3-7.87,2.17-12.04c0.4-2.37,1.75-4.58,1.15-7.11c0.73-1.56,0.44-3.16,0.18-4.76
	c1.17-1.15,1.02-2.66,0.91-4.05c-0.27-3.34-0.38-6.75-1.14-9.99c-0.45-1.93,0.03-3.94-0.79-5.74c-1.84-4.03-5.33-6.49-8.94-8.62
	c-2.31-1.36-4.84-0.1-7.3,0.39c-1.52,0.3-2.87,0.81-4.28,1.36c-4.26,1.65-7.44,5.3-12.67,6.37c2.36,0.92,4.05,1.71,5.82,2.21
	c1.19,0.34,1.55,1.14,1.48,2.08c-0.08,1.09-1.1,0.67-1.75,0.66c-5.42-0.08-10.54-1.41-15.38-3.83c-3.37-1.69-6.64-3.47-9.47-6.09
	c-1.44-1.33-3.47-2.27-5.4-2.79C19.31,2.71,13.32,4.78,8.27,9.98c-3.8,3.91-4.11,8.91-4.43,13.86c-0.23,3.5-0.84,7.12,1.19,10.4
	c-0.75,2.73,0.68,5.12,1.29,7.61c0.72,2.93,2.11,5.68,2.53,8.71c1.1,4.73,2.21,9.47,3.31,14.2c-0.02,0.44-0.04,0.88,0.46,1.11
	l-0.01-0.02c0.16,0.26,0.33,0.52,0.49,0.78c-0.11,0.09-0.13,0.19-0.05,0.31c-0.63,0.97-0.03,1.8,0.31,2.65
	c-0.29,0.93,0.07,1.74,0.32,2.62c0.81,2.83,1.66,5.67,2.2,8.56c0.71,3.75,3.17,6.76,4.22,10.36c0.13,0.46,0.85,1.4,1.82,1.38
	c1.09,2.24,3.07,2.82,5.34,2.9c0.42,0.05,0.83,0.1,1.25,0.15c0.57,0.11,1.13,0.16,1.53-0.39c1.53-0.03,2.18-1.33,2.67-2.33
	c1.85-3.76,3.42-7.65,3.32-11.96c-0.04-1.82,0.66-3.44,1.08-5.14c0.66-2.68,2.48-4.92,2.64-7.72c1.53-2.33,2.87-4.82,5.68-5.92
	c3.15-0.45,6.23-0.71,8.17,2.62c0.55,1.27,1.11,2.54,1.66,3.82c1.01,2.68,0.82,5.56,1.42,8.32c0.91,4.18,1.71,8.38,2.39,12.6
	c0.41,2.54,3.05,5.12,5.65,5.18c3.24,0.07,8-5.2,8.41-9.31c0.81-3.26,3.2-5.95,3.46-9.43c0.03-0.46,0.54-0.89,0.82-1.34
	c1.56-1.54,1.6-3.73,1.99-5.62C79.8,66.98,80.58,66.59,82.25,66.91z"/>
<path class="st0" d="M81.71,61.34c2.8,1.31,0.64,3.35,0.74,5.06c-0.07,0.17-0.14,0.34-0.21,0.51c-1.67-0.32-2.45,0.06-2.86,2.03
	c-0.39,1.88-0.43,4.07-1.99,5.62c0.1-3.58,1.45-6.89,2.26-10.32C79.96,63.01,80.56,61.98,81.71,61.34z"/>
<path class="st1" d="M5.03,34.24c-2.04-3.27-1.42-6.9-1.19-10.4c0.32-4.95,0.63-9.95,4.43-13.86c5.06-5.2,11.04-7.28,18.12-5.35
	c1.93,0.52,3.96,1.46,5.4,2.79c2.83,2.62,6.1,4.4,9.47,6.09c4.84,2.42,9.96,3.75,15.38,3.83c0.65,0.01,1.67,0.42,1.75-0.66
	c0.07-0.93-0.28-1.74-1.48-2.08c-1.77-0.5-3.46-1.29-5.82-2.21c5.24-1.07,8.41-4.71,12.67-6.37c1.4-0.54,2.75-1.06,4.28-1.36
	c2.47-0.49,4.99-1.75,7.3-0.39c3.62,2.13,7.11,4.59,8.94,8.62c0.82,1.8,0.34,3.81,0.79,5.74c0.76,3.24,0.87,6.64,1.14,9.99
	c0.11,1.4,0.26,2.9-0.91,4.05c-0.85-0.42-2.07-0.88-2.13,0.44c-0.15,3.32-2.46,5.66-3.44,8.58c-1.36,4.07-1.74,4.12-6.05,3.58
	c-4.09-0.51-8.56,0.88-9.76,4.05c-1.06,2.8-2.78,3.35-4.74,1.1c-2.63-3.03-5.83-4.71-9.74-5.08c-2.49-0.24-5.54-1.22-7.35,0.44
	c-2.41,2.2-3.92,3.86-7.77,2.45c-2.31-0.85-4.83-1.37-7.11-2.57c-2.92-1.54-7.26,1.03-7.5,4.36c-0.06,0.76,0.31,1.7-0.74,2.12
	c-1.23,0.49-1.25-1.04-1.93-1.25c-0.94,0.26-0.24,1.67-1.25,1.6c-0.98-0.06-1.16-1.07-1.4-1.8c-0.71-2.15-1.08-4.44-2.85-6.08
	c0.16-1.15-0.36-2.18-0.58-3.26c0.95-1.36,0.09-1.84-1.07-2.18C9.43,36.38,6.98,35.56,5.03,34.24z M41.94,41.31
	c2.71-0.17,5.26-1.08,7.84-1.81c1.14-0.32,1.16-1.3,1-2.21c-0.8-4.6-5.52-6.52-9.37-3.84c-1.53,1.07-2.43,4.82-1.62,6.58
	C40.23,41,40.93,41.38,41.94,41.31z M20.92,29.87c-1.73-0.15-2.83,0.76-2.77,2.63c0.06,1.91,1.2,3.22,3.12,3.36
	c1.69,0.12,2.75-1.35,2.68-2.66C23.87,31.73,23.65,29.58,20.92,29.87z M67.73,31.26c0.82-2.46-1.39-2.61-2.51-2.75
	c-1.65-0.21-2.87,1.12-2.83,2.82c0.03,1.29,0.61,2.72,2.38,2.61C66.44,33.84,68.5,34,67.73,31.26z"/>
<path class="st2" d="M73.13,85.33c-0.41,4.11-5.17,9.38-8.41,9.31c-2.6-0.06-5.23-2.64-5.65-5.18c-0.69-4.22-1.48-8.43-2.39-12.6
	c-0.6-2.76-0.41-5.64-1.42-8.32c0.64-0.03,0.85-0.44,1.09-1c0.67-1.57,2.66-0.57,3.58-1.72c1.56,1.32,1.56,1.32,2.22-0.99
	c1.54,1.06,2.89,1.43,4.41-0.32c0.79-0.9,3.4-0.19,3.58,0.23c0.91,2.19,2.63,1.49,4.14,1.64c-0.12,0.75,0.32,1.82-0.77,2.06
	c-1.56,0.33-1.58,1.2-1.11,2.38c0.24,0.61,0.41,1.29,0.02,1.82c-2.02,2.74-1.64,5.84-1.4,8.92c0.06,0.75-0.4,1.84,0.67,2.09
	c1.57,0.37-0.04-1.61,1.25-1.73C73.37,83.04,73.14,84.2,73.13,85.33z"/>
<path class="st3" d="M11.55,44.6c1.77,1.64,2.14,3.93,2.85,6.08c0.24,0.73,0.42,1.75,1.4,1.8c1.01,0.06,0.31-1.34,1.25-1.6
	c0.68,0.21,0.7,1.74,1.93,1.25c1.05-0.42,0.68-1.36,0.74-2.12c0.25-3.33,4.58-5.9,7.5-4.36c2.28,1.2,4.8,1.72,7.11,2.57
	c3.85,1.42,5.35-0.25,7.77-2.45c1.82-1.66,4.86-0.67,7.35-0.44c3.91,0.37,7.11,2.06,9.74,5.08c1.96,2.25,3.68,1.7,4.74-1.1
	c1.19-3.17,5.67-4.56,9.76-4.05c4.31,0.54,4.69,0.49,6.05-3.58c0.98-2.92,3.29-5.26,3.44-8.58c0.06-1.32,1.29-0.86,2.13-0.44
	c0.25,1.6,0.54,3.2-0.18,4.76c-0.79,0.45-1.49,0.93-1.92,1.81c-1.83,3.72-4.04,7.26-5.16,11.3c-1.32,0.22-2.54-0.25-3.79-0.5
	c-0.35-0.01-0.71-0.02-1.06-0.03c-0.19-0.77-0.34-1.55-0.58-2.3c-0.52-1.66-2.01-1.97-3.19-0.73c-0.7,0.73-0.6,1.61-0.61,2.49
	c-0.18,0.03-0.35,0.05-0.53,0.06c-0.53-0.93-1.22-1.71-1.6-0.03c-0.29,1.27-1.17,2.06-1.88,2.91c-2.93,3.52-5.93,4.13-7.74,1.22
	c-3.34-5.36-8.88-4-13.61-5.13c-0.95-0.23-1.28,0.85-1.64,1.56c-0.47,0.93-0.89,1.8-2.24,1.21c-0.92-0.4-1.59,0.27-2.03,0.96
	c-0.5,0.77-1.1,1.16-2,1.08c-0.35,0-0.71,0-1.06,0c-1.75,0.16-3.51,0.2-3.33,2.79c0.06,0.92,0.66,2.49-1.08,2.54
	c-1.62,0.05-2.23-1.4-1.96-2.65c0.28-1.31-0.32-1.43-1.18-1.88c-1.81-0.95-3.59-1.09-5.49-0.36c-0.58,0.22-1.44,0.66-1.79,0.42
	c-2.9-1.89-2.63,0.17-2.63,1.99c0,0.54,0.02,1.14-0.63,1.35c-0.61,0.19-1.04-0.17-1.38-0.62c-0.74-1-2.2-1.59-2.22-2.97
	C12.76,50.76,10.97,47.84,11.55,44.6z"/>
<path class="st4" d="M28.51,95.57c-0.42-0.05-0.83-0.1-1.25-0.15c-0.79-1.13-2.11-1.82-2.59-3.24c-0.21-0.61-0.39-1.61-1.22-1.54
	c-0.96,0.08-1.45,0.91-1.53,1.88c-0.97,0.02-1.69-0.92-1.82-1.38c-1.05-3.6-3.51-6.61-4.22-10.36c-0.54-2.89-1.39-5.72-2.2-8.56
	c-0.25-0.88-0.61-1.7-0.32-2.62c0.31,0.2,0.61,0.4,0.92,0.59c0.2,1.52,1.21,2.54,2.58,2.1c2.79-0.89,3.04,0.45,2.91,2.62
	c-0.05,0.78,0.32,1.58,0.5,2.37c0.04,3.03,0.98,5.9,2.49,8.38c0.89,1.46,3.04,3.33,4.31,3.12c1.98-0.33,1.66-3.02,1.92-4.85
	c0.04-0.27-0.07-0.58,0.02-0.81c0.8-1.93-0.42-4.74,1.18-5.9c3.35-2.44,4.1-5.48,3.72-9.2c0.45-0.02,1.1,0.15,1.33-0.09
	c1.53-1.61,1.98-0.36,2.49,0.85c0.1,0.23,0.26,0.43,0.49,0.8c0.56-0.57,1.04-1.06,1.53-1.56c-0.16,2.8-1.98,5.04-2.64,7.72
	c-0.42,1.71-1.12,3.32-1.08,5.14c0.1,4.31-1.47,8.2-3.32,11.96c-0.49,1-1.14,2.3-2.67,2.33c-0.27-0.47-0.58-1-1.2-0.78
	C28.36,94.57,28.51,95.14,28.51,95.57z"/>
<path class="st5" d="M11.55,44.6c-0.58,3.24,1.2,6.16,1.23,9.34c0.01,1.38,1.47,1.97,2.22,2.97c0.34,0.46,0.77,0.81,1.38,0.62
	c0.66-0.21,0.63-0.81,0.63-1.35c0-1.82-0.27-3.88,2.63-1.99c0.36,0.23,1.21-0.2,1.79-0.42c1.9-0.73,3.67-0.59,5.49,0.36
	c0.86,0.45,1.45,0.58,1.18,1.88c-0.27,1.25,0.34,2.7,1.96,2.65c1.74-0.05,1.14-1.63,1.08-2.54c-0.18-2.59,1.58-2.63,3.33-2.79
	c0.08,1.72-0.05,3.43-0.59,5.08c-0.97,2.92-3.69,3.91-5.43,1.77c-1.59-1.94-2.63-1.18-3.47,0.32c-0.62,1.1-0.82,1.32-2.06,0.64
	c-1.52-0.83-4.47,0.38-4.81,1.58c-0.69,2.49-1.57,2.7-3.57,0.96c-1.29-1.13-1.88-2.39-2-4.19c-0.16-2.39-0.97-4.74-1.43-7.12
	c-0.25-1.31-1-1.84-2.27-1.8c-0.42-3.03-1.81-5.77-2.53-8.71c-0.61-2.5-2.04-4.88-1.29-7.61c1.95,1.31,4.4,2.14,4.88,4.91
	c-0.06,0.93,0.09,1.76,1.07,2.18C11.19,42.42,11.72,43.45,11.55,44.6z"/>
<path class="st6" d="M8.85,50.57c1.27-0.04,2.02,0.49,2.27,1.8c0.46,2.38,1.27,4.72,1.43,7.12c0.12,1.81,0.7,3.06,2,4.19
	c2,1.75,2.88,1.54,3.57-0.96c0.34-1.2,3.29-2.41,4.81-1.58c1.24,0.67,1.44,0.46,2.06-0.64c0.84-1.5,1.88-2.26,3.47-0.32
	c1.74,2.13,4.46,1.14,5.43-1.77c0.55-1.65,0.67-3.35,0.59-5.08c0.35,0,0.71,0,1.06,0c0.63,1.73,1.9,3.23,3.58,1.87
	c3.92-3.17,8.4-2.3,10.64,2.45c-1.45-0.29-3.19-1.21-4.07,0.62c-1.14,2.37-3.24,2.37-5.28,2.74c-0.35-0.02-0.69-0.03-1.04-0.04
	c-0.43-0.99-1.01-1.9-1.18-3.01c-0.15-0.95-1.02-1.25-1.85-1.26c-0.87-0.01-1.18,0.66-1.31,1.45c-0.18,1.06-0.27,2.17-0.65,3.16
	c-0.46,1.19-0.57,3.26-2.84,1.75c-0.27-0.18-1.02-0.09-1.25,0.16c-1.72,1.88-2.7,0.34-3.85-1.16c-0.43,1.91-1.5,3.11-2.02,4.67
	c-0.33,0.99-1.52,3.64-2.57,2.59c-1.83-1.84-3.11-2.05-5.14-0.85c-0.32,0.19-1.16-0.36-1.7-0.68c-0.62-0.37-1.14-0.91-1.94-0.83
	c-0.07-0.12-0.06-0.22,0.05-0.31c-0.16-0.26-0.33-0.52-0.49-0.78c0,0,0.01,0.02,0.01,0.02c0.03-0.45-0.05-0.85-0.46-1.11
	C11.05,60.03,9.95,55.3,8.85,50.57z"/>
<path class="st6" d="M68.28,49.55c0.18-0.01,0.35-0.03,0.53-0.06c1.54-0.43,2.77,1.61,4.38,0.54c0.35,0.01,0.71,0.02,1.06,0.03
	c0.03,1.56-0.27,3.71,1.62,3.92c0.99,0.11,2.37-1.66,2.17-3.42c1.12-4.04,3.33-7.58,5.16-11.3c0.43-0.88,1.13-1.37,1.92-1.81
	c0.6,2.53-0.75,4.74-1.15,7.11c-2.28,3.21-5.04,6.18-5.33,10.41c-1.07,0.41-1.18,1.53-1.75,2.32c-1.26,1.75-2.45,1.56-3.85,0.11
	c-1.11-1.15-1.96-2.3-2.66-3.73c-0.57-1.15-1.78-1.25-2.56,0.06c-0.56,0.93-1.21,1.8-1.78,2.7c-2.35,3.69-6.49,4.26-10,5.89
	c-1.16,0.54-3.55-1.59-3.6-3c1.58-0.37,3.07-0.69,4.78-0.22c1.27,0.35,3.76,0.33,4-0.24C62.82,55.11,67.18,53.55,68.28,49.55z"/>
<path class="st7" d="M52.44,59.31c0.05,1.41,2.44,3.54,3.6,3c3.51-1.63,7.65-2.2,10-5.89c0.57-0.9,1.23-1.77,1.78-2.7
	c0.78-1.31,2-1.21,2.56-0.06c0.7,1.43,1.55,2.58,2.66,3.73c1.4,1.45,2.59,1.64,3.85-0.11c0.57-0.79,0.68-1.91,1.75-2.32
	c0.17,2.18-0.82,3.88-2.22,5.42c-1.27-0.17-1.73,0.71-2.17,1.64c-0.28,0.6-1.29,1.22-1.35,0.98c-0.44-1.71-3.08-1.24-3.07-3.35
	c0.01-0.99-0.48-1.97-1.8-1.96c-1.16,0.01-2.5,0.36-2.6,1.5c-0.18,2.12-1.61,2.98-3.15,3.25c-2.98,0.51-5.52,2.63-8.69,2.29
	c-1.93-3.33-5.02-3.07-8.17-2.62c-1.67-0.41-3.67,0.72-5.03-1.1c2.03-0.37,4.13-0.37,5.28-2.74c0.88-1.82,2.63-0.91,4.07-0.62
	C50.91,57.79,52.15,57.78,52.44,59.31z"/>
<path class="st4" d="M73.13,85.33c0.01-1.13,0.25-2.29-0.2-3.39c-1.3,0.12,0.32,2.1-1.25,1.73c-1.07-0.25-0.61-1.35-0.67-2.09
	c-0.24-3.08-0.62-6.18,1.4-8.92c0.39-0.53,0.22-1.22-0.02-1.82c-0.47-1.18-0.45-2.05,1.11-2.38c1.09-0.23,0.66-1.31,0.77-2.06
	c0.45-0.02,0.84-0.13,1.07-0.56c1.4-0.01,2.02-1.14,2.03-2.1c0.01-2.76,1.98-3.27,3.94-3.91c0.75,0.34,0.52,0.95,0.41,1.52
	c-1.15,0.64-1.75,1.67-2.04,2.9c-0.81,3.43-2.16,6.74-2.26,10.32c-0.29,0.45-0.79,0.87-0.82,1.34
	C76.32,79.38,73.93,82.07,73.13,85.33z"/>
<path class="st8" d="M75.34,65.83c-0.23,0.43-0.63,0.54-1.07,0.56c-1.5-0.15-3.23,0.55-4.14-1.64c-0.17-0.42-2.79-1.13-3.58-0.23
	c-1.52,1.75-2.86,1.38-4.41,0.32c-0.66,2.31-0.66,2.31-2.22,0.99c-0.93,1.15-2.91,0.14-3.58,1.72c-0.24,0.55-0.45,0.96-1.09,1
	c-0.55-1.27-1.11-2.54-1.66-3.82c3.18,0.34,5.71-1.78,8.69-2.29c1.54-0.26,2.97-1.13,3.15-3.25c0.1-1.14,1.44-1.49,2.6-1.5
	c1.32-0.01,1.8,0.96,1.8,1.96c-0.01,2.11,2.64,1.64,3.07,3.35c0.06,0.24,1.07-0.38,1.35-0.98c0.44-0.93,0.9-1.81,2.17-1.64
	c0.05,1.08,0.09,2.09-1.05,2.79C74.06,63.96,74.69,64.93,75.34,65.83z"/>
<path class="st7" d="M13.05,66.95c0.8-0.08,1.32,0.46,1.94,0.83c0.53,0.32,1.37,0.87,1.7,0.68c2.04-1.2,3.31-0.99,5.14,0.85
	c1.05,1.05,2.24-1.6,2.57-2.59c0.52-1.56,1.59-2.76,2.02-4.67c1.15,1.5,2.13,3.04,3.85,1.16c0.22-0.24,0.97-0.34,1.25-0.16
	c2.27,1.51,2.38-0.55,2.84-1.75c0.38-0.99,0.48-2.09,0.65-3.16c0.13-0.79,0.44-1.47,1.31-1.45c0.83,0.01,1.7,0.31,1.85,1.26
	c0.17,1.11,0.76,2.02,1.18,3.01c-0.18,0.19-0.35,0.37-0.53,0.56c-2.96-1.21-3.9,1.73-4.59,3.06c-1.44,2.74-3.48,2.64-5.67,2.25
	c-3.26-0.58-3.31-0.67-3.39,2.82c-0.43,0.25-0.52,0.65-0.52,1.1c-1.38,0.27-2.25,3.33-3.68,1.5c-1.97-2.51-4.41-1.63-6.7-2.06
	c-0.31-0.2-0.62-0.4-0.92-0.59C13.02,68.75,12.42,67.92,13.05,66.95z"/>
<path class="st2" d="M75.34,65.83c-0.65-0.9-1.28-1.87,0.04-2.67c1.14-0.69,1.1-1.71,1.05-2.79c1.39-1.54,2.39-3.24,2.22-5.42
	c0.29-4.23,3.05-7.2,5.33-10.41c0.13,4.17-0.95,8.11-2.17,12.04c-0.76,0.8-0.34,1.8-0.46,2.71c-0.03,0.17-0.04,0.35-0.04,0.52
	c-1.96,0.64-3.93,1.15-3.94,3.91C77.36,64.69,76.74,65.82,75.34,65.83z"/>
<path class="st2" d="M38.83,61.53c0.18-0.19,0.35-0.37,0.53-0.56c0.35,0.01,0.69,0.03,1.04,0.04c1.36,1.82,3.36,0.69,5.03,1.1
	c-2.8,1.1-4.15,3.6-5.68,5.92c-0.49,0.49-0.97,0.99-1.53,1.56c-0.23-0.37-0.39-0.57-0.49-0.8c-0.51-1.21-0.96-2.46-2.49-0.85
	c-0.22,0.24-0.87,0.07-1.33,0.09c0,0-0.03-0.02-0.03-0.02c-0.04-0.85,0.09-1.88,0.88-2.1C37.09,65.25,37.57,63.06,38.83,61.53z"/>
<path class="st8" d="M21.93,92.52c0.08-0.98,0.57-1.81,1.53-1.88c0.82-0.07,1,0.93,1.22,1.54c0.48,1.42,1.8,2.11,2.59,3.24
	C25,95.34,23.02,94.76,21.93,92.52z"/>
<path class="st8" d="M28.51,95.57c0-0.43-0.15-0.99,0.33-1.17c0.61-0.22,0.93,0.31,1.2,0.78C29.64,95.73,29.08,95.67,28.51,95.57z"
	/>
<path class="st4" d="M81.34,59.3c0.12-0.91-0.3-1.91,0.46-2.71C81.75,57.51,82.27,58.53,81.34,59.3z"/>
<path class="st7" d="M12.16,64.77c0.41,0.26,0.49,0.66,0.46,1.11C12.12,65.65,12.14,65.21,12.16,64.77z"/>
<path class="st7" d="M12.61,65.86c0.16,0.26,0.33,0.52,0.49,0.78C12.94,66.38,12.78,66.12,12.61,65.86z"/>
<path class="st0" d="M41.94,41.31c-1.01,0.07-1.71-0.32-2.15-1.27c-0.81-1.76,0.09-5.51,1.62-6.58c3.85-2.68,8.57-0.76,9.37,3.84
	c0.16,0.91,0.14,1.89-1,2.21C47.2,40.23,44.66,41.15,41.94,41.31z"/>
<path class="st0" d="M20.92,29.87c2.73-0.29,2.95,1.85,3.03,3.33c0.07,1.31-0.99,2.78-2.68,2.66c-1.93-0.13-3.07-1.44-3.12-3.36
	C18.09,30.63,19.19,29.73,20.92,29.87z"/>
<path class="st0" d="M67.73,31.26c0.77,2.74-1.29,2.58-2.96,2.68c-1.77,0.11-2.35-1.32-2.38-2.61c-0.05-1.7,1.17-3.03,2.83-2.82
	C66.34,28.65,68.55,28.8,67.73,31.26z"/>
<path class="st3" d="M10.97,41.34c-0.98-0.42-1.12-1.25-1.07-2.18C11.06,39.49,11.92,39.97,10.97,41.34z"/>
<path class="st5" d="M52.44,59.31c-0.3-1.53-1.54-1.52-2.69-1.66c-2.24-4.75-6.71-5.62-10.64-2.45c-1.68,1.36-2.95-0.13-3.58-1.87
	c0.91,0.08,1.51-0.31,2-1.08c0.44-0.69,1.11-1.36,2.03-0.96c1.35,0.59,1.77-0.27,2.24-1.21c0.36-0.71,0.69-1.79,1.64-1.56
	c4.73,1.12,10.27-0.23,13.61,5.13c1.81,2.91,4.81,2.3,7.74-1.22c0.71-0.85,1.59-1.65,1.88-2.91c0.39-1.69,1.07-0.91,1.6,0.03
	c-1.1,4-5.46,5.56-7.05,9.3c-0.24,0.58-2.73,0.6-4,0.24C55.52,58.62,54.02,58.94,52.44,59.31z"/>
<path class="st5" d="M73.19,50.03c-1.61,1.07-2.85-0.97-4.38-0.54c0.01-0.88-0.09-1.76,0.61-2.49c1.18-1.24,2.67-0.93,3.19,0.73
	C72.85,48.49,73,49.27,73.19,50.03z"/>
<path class="st5" d="M78.05,50.56c0.2,1.77-1.18,3.53-2.17,3.42c-1.89-0.21-1.59-2.36-1.62-3.92
	C75.51,50.31,76.73,50.78,78.05,50.56z"/>
<path class="st2" d="M24.67,70.75c0-0.45,0.09-0.85,0.52-1.1c2.85-1.53,3.75-1.01,3.99,2.41c0.08,1.12,0.67,1.71,1.61,1.82
	c1.09,0.13,0.74-0.99,1.07-1.55c0.83-1.38-0.28-3.67,2.04-4.33c0,0,0.03,0.02,0.03,0.02c0.39,3.72-0.37,6.77-3.72,9.2
	c-1.6,1.17-0.38,3.97-1.18,5.9c-0.1,0.23,0.02,0.54-0.02,0.81c-0.27,1.83,0.06,4.52-1.92,4.85c-1.27,0.21-3.42-1.66-4.31-3.12
	c-1.51-2.49-2.46-5.35-2.49-8.38c1.16,0,2.3-0.09,3.34,0.73c0.68,0.54,1.54,0.34,1.51-0.67C25.04,75.15,25.73,72.88,24.67,70.75z"/>
<path class="st8" d="M24.67,70.75c1.06,2.13,0.38,4.4,0.45,6.6c0.04,1.01-0.83,1.22-1.51,0.67c-1.04-0.83-2.18-0.73-3.34-0.73
	c-0.18-0.79-0.55-1.59-0.5-2.37c0.13-2.17-0.12-3.51-2.91-2.62c-1.37,0.44-2.38-0.58-2.58-2.1c2.29,0.42,4.73-0.45,6.7,2.06
	C22.41,74.08,23.29,71.02,24.67,70.75z"/>
<path class="st8" d="M33.89,68.01c-2.32,0.66-1.21,2.95-2.04,4.33c-0.33,0.55,0.02,1.67-1.07,1.55c-0.94-0.11-1.53-0.7-1.61-1.82
	c-0.24-3.42-1.15-3.93-3.99-2.41c0.08-3.49,0.14-3.41,3.39-2.82c2.19,0.39,4.23,0.49,5.67-2.25c0.7-1.32,1.63-4.27,4.59-3.06
	c-1.26,1.53-1.74,3.73-4.06,4.38C33.98,66.13,33.85,67.16,33.89,68.01z"/>
</svg>
