<?xml version="1.0" encoding="utf-8"?>
<!-- Generator: Adobe Illustrator 27.8.0, SVG Export Plug-In . SVG Version: 6.00 Build 0)  -->
<svg version="1.1" id="Layer_1" xmlns="http://www.w3.org/2000/svg" xmlns:xlink="http://www.w3.org/1999/xlink" x="0px" y="0px"
	 viewBox="0 0 46.98 58.47" style="enable-background:new 0 0 46.98 58.47;" xml:space="preserve">
<style type="text/css">
	.st0{fill:#871933;}
	.st1{fill:#ECEAE9;}
	.st2{fill:#BC6356;}
</style>
<path class="st0" d="M46.56,19.36c0.12,1.96,0.41,3.82,0.42,5.78c0.02,4.85-1.23,9.23-3.99,13.08c-1.97,2.75-5.3,3.92-8.12,5.62
	c-4.3,2.59-9.18,2.74-13.97,2.57c-3.31-0.12-4.73,2.16-6.16,4.18c-1.74,2.46-4.16,4.23-5.92,6.65c-0.54,0.75-1.61,1.84-2.94,0.79
	c-1.16-0.92-1.63-2.21-1.29-3.54c1.05-4.2,0.72-8.52,1.17-12.76c0.27-2.48-2.16-3.75-3.27-5.55c-2.23-3.62-2.77-7.44-2.37-11.29
	c0.42-4.08,0.93-8.39,3.36-11.9c2.15-3.11,4.69-5.8,8.08-7.93c2.59-1.63,5.31-2.65,7.96-3.99c3.07-1.56,6.15-1.16,9.02-0.42
	c4.97,1.27,9.14,4.31,12.87,7.76C44.56,11.32,45.6,15.37,46.56,19.36z M8.67,51.42c0.37,0.14,0.32,0.12,0.69,0.26
	c1.79-2.59,4.05-4.76,6.11-7.11c1.48-1.68,3.13-2.39,5.41-2.15c5.58,0.59,10.82-0.32,15.26-4.11c0.25-0.21,0.65-0.26,0.99-0.34
	c1.76-0.43,2.95-1.58,3.66-3.15c3.58-7.89,3.66-15.49-1.5-22.91c-1.36-1.96-3.35-2.61-4.99-3.92c-4.02-3.2-8.48-4.3-13.45-3.24
	c-4.9,1.04-8.96,3.91-12.02,7.53c-2.84,3.36-4.96,7.49-5.04,12.25c-0.07,4.24,0.43,8.35,3.37,11.58c1.9,2.09,2.94,4.92,2.4,7.52
	C9.03,46.18,8.95,48.82,8.67,51.42z"/>
<path class="st1" d="M8.67,51.42c0.28-2.6,0.36-5.24,0.89-7.79c0.54-2.6-0.5-5.44-2.4-7.52c-2.94-3.22-3.44-7.34-3.37-11.58
	c0.08-4.77,2.2-8.89,5.04-12.25c3.06-3.63,7.12-6.49,12.02-7.53c4.97-1.05,9.43,0.04,13.45,3.24c1.65,1.31,3.63,1.97,4.99,3.92
	c5.16,7.42,5.08,15.02,1.5,22.91c-0.71,1.56-1.9,2.72-3.66,3.15c-0.34,0.08-0.74,0.13-0.99,0.34c-4.44,3.78-9.68,4.7-15.26,4.11
	c-2.28-0.24-3.92,0.47-5.41,2.15c-2.06,2.34-4.32,4.52-6.11,7.11C8.99,51.54,9.04,51.56,8.67,51.42z M33.22,17.98
	c-0.01-1.8-0.1-3.46-1.93-4.48c-2.26-1.26-5.08-0.44-6.47,1.98c-2.13,3.69-2.17,3.74-5.22,1.32c-2.19-1.74-4.72-1.25-6.55-0.16
	c-1.76,1.05-1.8,3.45-1,5.58c2.05,5.47,6.7,8.52,11.13,11.66c0.92,0.65,3.39,1.47,4.23,0.16C30.52,29.15,32.87,23.88,33.22,17.98z"
	/>
<path class="st2" d="M33.22,17.98c-0.35,5.9-2.7,11.17-5.82,16.05c-0.83,1.31-3.31,0.49-4.23-0.16c-4.43-3.14-9.08-6.19-11.13-11.66
	c-0.8-2.13-0.76-4.53,1-5.58c1.83-1.09,4.35-1.58,6.55,0.16c3.05,2.42,3.09,2.37,5.22-1.32c1.4-2.42,4.22-3.24,6.47-1.98
	C33.12,14.52,33.21,16.17,33.22,17.98z"/>
</svg>
