<?xml version="1.0" encoding="utf-8"?>
<!-- Generator: Adobe Illustrator 27.8.0, SVG Export Plug-In . SVG Version: 6.00 Build 0)  -->
<svg version="1.1" id="Layer_1" xmlns="http://www.w3.org/2000/svg" xmlns:xlink="http://www.w3.org/1999/xlink" x="0px" y="0px"
	 viewBox="0 0 52.05 65.86" style="enable-background:new 0 0 52.05 65.86;" xml:space="preserve">
<style type="text/css">
	.st0{fill:#871933;}
	.st1{fill:#ECEAE9;}
</style>
<path class="st0" d="M34.86,50.72c-1.31-0.37-2.7,0.12-3.64,0.65c-2.29,1.3-4.38,0.24-6.25-0.39c-2.11-0.71-2.85-0.05-3.78,1.57
	c-1.43,2.51-3.46,4.52-5.51,6.58c-1.62,1.63-2.54,3.96-4.37,5.59c-1.87,1.68-2.92,1.58-3.55-0.83C7.45,62.66,7.29,61.18,7.66,60
	c1.27-4.05,0.73-8.44,2.22-12.36c1.68-4.4-2.02-5.94-4-8.25c-2.03-2.37-3.63-4.74-3.99-7.88c-0.14-1.24-0.83-2.33-1.13-3.58
	C-1.05,20.4,0.31,13.44,5.35,7.87c2.5-2.77,5.89-5.13,10.04-6.28C18.85,0.63,22.25-0.04,25.73,0c3.38,0.04,7.02,0,9.98,1.78
	c5.62,3.39,11.44,6.47,13.75,13.64c0.88,2.73,2.22,5.42,2.51,8.29c0.26,2.54-0.24,5.19-0.3,7.7c-0.12,4.82-2.56,8.28-4.75,12.08
	c-1.63,2.83-4.07,4.9-7.02,5.43C38.01,49.26,37.02,51.63,34.86,50.72z M30.17,47.58c3.47,0.25,6.27-1.47,9.21-2.62
	c0.98-0.38,2.02-0.58,2.91-1.55c3.46-3.78,5.44-8.16,6.03-13.18c0.53-4.51-0.07-9.06-2.02-13.02C42.8,10.08,37.14,5.4,28.9,4.26
	c-4.7-0.65-9.31-0.39-13.63,1.3C9.24,7.92,5.41,12.29,4.43,19.01c-1.13,7.71,1.3,14.12,6.27,19.87c1.27,1.47,3.65,2.51,3.25,4.85
	c-0.37,2.16,0.06,4.3-0.41,6.51c-0.31,1.46-1.32,2.77-1.12,4.27c0.07,0.52-0.4,1.35,0.43,1.65c0.62,0.23,1.16-0.33,1.36-0.68
	c1.49-2.69,4.1-4.55,5.56-7.19c1.28-2.31,2.77-2.53,4.85-1.53C26.42,47.62,28.26,48.24,30.17,47.58z"/>
<path class="st1" d="M30.17,47.58c-1.91,0.67-3.75,0.04-5.56-0.82c-2.08-1-3.57-0.78-4.85,1.53c-1.46,2.64-4.06,4.5-5.56,7.19
	c-0.2,0.36-0.74,0.92-1.36,0.68c-0.82-0.31-0.36-1.13-0.43-1.65c-0.2-1.5,0.81-2.81,1.12-4.27c0.47-2.2,0.05-4.35,0.41-6.51
	c0.4-2.34-1.98-3.38-3.25-4.85c-4.97-5.75-7.4-12.16-6.27-19.87C5.41,12.29,9.24,7.92,15.27,5.56c4.32-1.69,8.93-1.95,13.63-1.3
	C37.14,5.4,42.8,10.08,46.3,17.2c1.95,3.96,2.54,8.51,2.02,13.02c-0.59,5.02-2.57,9.4-6.03,13.18c-0.89,0.97-1.93,1.17-2.91,1.55
	C36.44,46.11,33.64,47.83,30.17,47.58z M34.15,18.53c0.32-2.78-0.54-4.6-2.34-5.9c-3.8-2.75-12.48-2.38-16.05,0.54
	c-1.97,1.61-1.13,3.41-0.23,4.93c0.96,1.62,2.42,0.77,3.48-0.09c2.15-1.75,4.36-1.6,6.78-0.7c1.41,0.52,2.55,2.89,1.45,3.79
	c-3.02,2.47-3.62,4.89-2.37,8.88c0.9,2.86,2.17,2.52,3.77,2.14c1.9-0.45,1.6-2.01,0.92-3.43c-0.66-1.39-0.33-2.32,0.88-3.41
	C32.53,23.39,34.48,21.23,34.15,18.53z M35,37.5c0.32-1.89-1.16-2.4-2.71-2.48c-2.4-0.13-2.64,1.92-2.84,3.53
	c-0.17,1.35,0.94,2.41,2.21,2.68C33.09,41.52,34.98,39.37,35,37.5z"/>
<path class="st0" d="M34.15,18.53c0.33,2.71-1.62,4.86-3.72,6.76c-1.21,1.09-1.54,2.02-0.88,3.41c0.67,1.42,0.97,2.97-0.92,3.43
	c-1.59,0.38-2.87,0.72-3.77-2.14c-1.25-3.99-0.65-6.41,2.37-8.88c1.1-0.9-0.03-3.27-1.45-3.79c-2.41-0.89-4.63-1.05-6.78,0.7
	c-1.06,0.86-2.52,1.71-3.48,0.09c-0.9-1.53-1.74-3.32,0.23-4.93C19.32,10.25,28,9.87,31.8,12.62
	C33.61,13.93,34.47,15.74,34.15,18.53z"/>
<path class="st0" d="M35,37.5c-0.02,1.88-1.91,4.02-3.34,3.72c-1.28-0.27-2.38-1.32-2.21-2.68c0.2-1.61,0.43-3.66,2.84-3.53
	C33.84,35.1,35.32,35.61,35,37.5z"/>
</svg>
