<?xml version="1.0" encoding="utf-8"?>
<!-- Generator: Adobe Illustrator 27.8.0, SVG Export Plug-In . SVG Version: 6.00 Build 0)  -->
<svg version="1.1" id="Layer_1" xmlns="http://www.w3.org/2000/svg" xmlns:xlink="http://www.w3.org/1999/xlink" x="0px" y="0px"
	 viewBox="0 0 90.05 99.49" style="enable-background:new 0 0 90.05 99.49;" xml:space="preserve">
<style type="text/css">
	.st0{fill:#871933;}
	.st1{fill:#ECEAE9;}
	.st2{fill:#B7D7DE;}
</style>
<path class="st0" d="M26.7,99.3c-3.53,1.01-5.64-2.09-7.65-4.43c-2.52-2.94-4.09-6.48-5.39-10.34c-2.18-6.48-3.85-13.05-5.27-19.68
	c-0.53-2.45-2.02-4.83-1.36-7.52c0.04-0.17,0.08-0.41,0-0.53c-3.08-4.74-2.73-10.53-4.84-15.64C0.56,37.22,0.02,32.76,0,28.43
	c-0.02-4.78,0.47-9.58,1.71-14.22c0.87-3.23,3.01-5.75,5.4-8.13c3.84-3.81,8.77-5.34,13.74-5.68c3.3-0.22,6.93,0.32,10.23,2.33
	c4.02,2.45,7.59,5.62,11.88,7.62c2.22,1.04,4.28-0.39,6.33-0.87c2.78-0.65,5.23-2.23,7.57-3.9c3.73-2.66,8.06-4.21,12.36-5.22
	c7.26-1.7,12.27,2.55,16.62,7.77c3.36,4.04,3.18,9,3.75,13.74c0.9,7.41,0.52,14.92-1.16,22.07c-1.59,6.77-1.91,13.78-4.11,20.36
	c-0.73,2.18-1.73,4.38-2.7,6.51c-0.73,1.61-0.65,3.29-1.02,4.84c-0.79,3.34-2.57,6.25-3.37,9.51c-1.34,5.43-4.46,9.57-8.86,12.86
	c-0.43,0.32-0.77,0.84-1.39,0.7c-3.72-0.84-8.03-0.84-9.95-4.91c-1.09-2.32-1.26-5.06-2.04-7.58c-1.08-3.5-0.84-7.31-1.65-10.82
	c-0.65-2.83-0.3-6.18-2.86-8.48c-1.89-1.7-4.81-1.73-5.91,0.45c-1.87,3.69-3.83,7.44-4.89,11.39c-0.7,2.58-0.15,5.59-0.78,8.29
	c-1.06,4.49-2.28,9.07-6.57,11.7C30.85,99.65,28.95,99.35,26.7,99.3z M51.49,12.73c2.13,0.81,3.91,1.53,5.73,2.16
	c0.96,0.34,1.4,1.04,1.37,1.92c-0.04,1.12-1.01,0.67-1.66,0.81c-2.02,0.45-3.87-0.48-5.81-0.66c-4.43-0.41-8.3-2.51-12.22-4.33
	c-3.68-1.7-6.6-4.65-10.06-6.78c-5.37-3.3-13.06-1.49-17.05,1.28c-4.64,3.22-6.95,7.98-7.57,13.94c-0.55,5.26-0.36,10.4,0.72,15.38
	c1.66,7.6,4.63,14.86,5.96,22.61c0.83,4.84,2.11,9.68,3.51,14.42c2.08,7.06,3.18,14.54,8.82,20.14c1.87,1.86,6.87,2.79,8.39,0.72
	c2.3-3.13,3.71-6.65,3.79-10.63c0.07-4.06,0.95-7.97,2.69-11.66c0.92-1.95,1.88-3.87,2.97-5.75c1.65-2.83,4.88-4.87,8.77-4.62
	c1.47,0.09,4.89,3.67,5.49,5.57c1.01,3.21,1.52,6.52,2.01,9.83c0.58,3.93,1.54,7.82,2.13,11.71c0.42,2.78,1.6,4.22,3.66,5.23
	c1.69,0.82,4.08,1.28,5.19-0.5c1.76-2.81,4.56-5.12,4.96-8.66c0.33-2.98,2.37-5.25,2.99-8.13c0.77-3.61,2.21-7.1,2.7-10.73
	c0.3-2.23,2.1-3.6,2.34-5.54c0.66-5.42,1.98-10.71,3.05-16.03c0.99-4.94,1.33-9.94,1.96-14.9c0.35-2.83-0.14-5.87-0.8-8.68
	c-0.73-3.14-0.29-6.47-2.03-9.45c-3.79-6.48-11.95-8.73-18.72-5.54C60.37,7.93,56.7,11.3,51.49,12.73z"/>
<path class="st1" d="M51.49,12.73c5.22-1.43,8.89-4.8,13.27-6.87c6.77-3.19,14.93-0.94,18.72,5.54c1.74,2.98,1.3,6.32,2.03,9.45
	c0.66,2.82,1.16,5.86,0.8,8.68c-0.62,4.96-0.97,9.96-1.96,14.9c-1.07,5.33-2.4,10.61-3.05,16.03c-0.24,1.94-2.03,3.32-2.34,5.54
	c-0.49,3.63-1.93,7.12-2.7,10.73c-0.62,2.87-2.66,5.15-2.99,8.13c-0.4,3.54-3.2,5.85-4.96,8.66c-1.11,1.78-3.5,1.32-5.19,0.5
	c-2.06-1-3.24-2.45-3.66-5.23c-0.59-3.89-1.56-7.78-2.13-11.71c-0.48-3.32-1-6.62-2.01-9.83c-0.6-1.9-4.02-5.48-5.49-5.57
	c-3.89-0.25-7.13,1.79-8.77,4.62c-1.1,1.88-2.05,3.8-2.97,5.75c-1.74,3.69-2.61,7.6-2.69,11.66c-0.07,3.99-1.49,7.5-3.79,10.63
	c-1.52,2.07-6.52,1.14-8.39-0.72c-5.64-5.6-6.74-13.08-8.82-20.14c-1.4-4.74-2.68-9.59-3.51-14.42c-1.33-7.75-4.31-15.01-5.96-22.61
	C3.84,31.47,3.66,26.34,4.2,21.08c0.62-5.96,2.93-10.72,7.57-13.94c3.99-2.77,11.68-4.58,17.05-1.28c3.47,2.13,6.38,5.07,10.06,6.78
	c3.92,1.82,7.79,3.92,12.22,4.33c1.94,0.18,3.79,1.11,5.81,0.66c0.65-0.14,1.63,0.31,1.66-0.81c0.03-0.88-0.41-1.59-1.37-1.92
	C55.4,14.26,53.62,13.54,51.49,12.73z M75.83,42.81c0.28-4.05-1.72-6.51-4.25-8.69c-0.67-0.58-1.22-1.51-2.27-1.08
	c-0.99,0.41-1.27,1.3-1.49,2.37c-0.46,2.2-0.12,4.43-0.26,6.63c-0.1,1.51-0.34,3.63,1.38,4.93c1.63,1.23,3.38,1.16,5.11,0.41
	C76.3,46.4,75.09,43.93,75.83,42.81z M23.65,33.6c2.84,0.25,7.42-4.27,7.11-7.1c-0.16-1.47-1.11-2.51-2.58-2.71
	c-1.81-0.24-0.82,1.37-1.18,2.1c-0.27,0.55-0.45,1.16-0.58,1.77c-0.39,1.74-1.25,2.01-3.06,1.7c-2.64-0.45-1.84-2.57-2.37-3.97
	c-0.44-1.14-0.95-1.83-2.1-1.47c-0.85,0.27-1.86,0.54-1.9,1.92C16.86,29.87,19.7,33.25,23.65,33.6z M73.53,24.85
	c0.03-1.23,0.91-2.87-1.48-2.89c-1.86-0.01-2.54,0.51-2.14,2.61c0.22,1.18-0.66,2.56-2.54,2.36c-1.57-0.17-2.98-0.19-3.27-2.31
	c-0.16-1.13-0.91-2.08-2.43-2.06c-1.99,0.03-1.12,1.54-1.24,2.35c-0.38,2.43,1.41,4.63,4.58,5.56
	C68.75,31.58,73.46,29.65,73.53,24.85z M42.69,32.77c-1.49,0.09-3.38,0.13-3.5,1.9c-0.12,1.79,2.07,2.25,3.2,2.12
	c1.75-0.2,3.45,0.32,5.18-0.1c1.28-0.31,2.72,0.19,3.95-0.61c0.7-0.45,1.43-0.88,1.06-1.91c-0.28-0.76-0.82-1.05-1.66-1.07
	C48.18,33.04,45.44,32.89,42.69,32.77z"/>
<path class="st2" d="M75.83,42.81c-0.74,1.13,0.48,3.59-1.79,4.57c-1.72,0.74-3.47,0.81-5.11-0.41c-1.72-1.29-1.48-3.41-1.38-4.93
	c0.14-2.2-0.2-4.43,0.26-6.63c0.22-1.07,0.5-1.96,1.49-2.37c1.05-0.43,1.6,0.49,2.27,1.08C74.11,36.3,76.11,38.76,75.83,42.81z"/>
<path class="st0" d="M23.65,33.6c-3.95-0.35-6.79-3.73-6.67-7.76c0.04-1.38,1.05-1.64,1.9-1.92c1.15-0.36,1.66,0.32,2.1,1.47
	c0.53,1.39-0.26,3.51,2.37,3.97c1.81,0.31,2.66,0.04,3.06-1.7c0.14-0.6,0.31-1.22,0.58-1.77c0.36-0.73-0.63-2.34,1.18-2.1
	c1.47,0.2,2.42,1.23,2.58,2.71C31.07,29.34,26.49,33.85,23.65,33.6z"/>
<path class="st0" d="M73.53,24.85c-0.07,4.8-4.78,6.72-8.52,5.63c-3.16-0.93-4.96-3.13-4.58-5.56c0.13-0.82-0.74-2.32,1.24-2.35
	c1.52-0.02,2.27,0.93,2.43,2.06c0.29,2.12,1.7,2.13,3.27,2.31c1.88,0.21,2.76-1.18,2.54-2.36c-0.4-2.1,0.28-2.62,2.14-2.61
	C74.44,21.98,73.56,23.62,73.53,24.85z"/>
<path class="st0" d="M42.69,32.77c2.74,0.12,5.48,0.28,8.23,0.34c0.85,0.02,1.39,0.31,1.66,1.07c0.37,1.02-0.36,1.46-1.06,1.91
	c-1.24,0.79-2.67,0.3-3.95,0.61c-1.74,0.42-3.44-0.11-5.18,0.1c-1.12,0.13-3.32-0.33-3.2-2.12C39.31,32.9,41.2,32.85,42.69,32.77z"
	/>
</svg>
