<?xml version="1.0" encoding="utf-8"?>
<!-- Generator: Adobe Illustrator 27.8.0, SVG Export Plug-In . SVG Version: 6.00 Build 0)  -->
<svg version="1.1" id="Layer_1" xmlns="http://www.w3.org/2000/svg" xmlns:xlink="http://www.w3.org/1999/xlink" x="0px" y="0px"
	 viewBox="0 0 89.97 99.23" style="enable-background:new 0 0 89.97 99.23;" xml:space="preserve">
<style type="text/css">
	.st0{fill:#871933;}
	.st1{fill:#ECEAE9;}
	.st2{fill:#AE786D;}
</style>
<path class="st0" d="M27.3,99.03c-4.15,1.02-6.36-2-8.45-4.45c-2.53-2.96-4.02-6.53-5.34-10.36c-2.2-6.39-3.79-12.88-5.21-19.43
	c-0.55-2.55-1.89-4.98-1.49-7.78c0.11-0.78-0.93-1.66-1.16-2.57c-1.48-5.69-2.69-11.46-4.39-17.08c-0.86-2.82-1.17-5.63-1.22-8.49
	c-0.12-6.65-0.13-13.5,3.6-19.22C6.18,5.75,9.92,2.79,14.92,1.4c3.9-1.09,7.53-1.26,11.42-0.64c4.51,0.71,7.73,3.68,11.18,6.16
	c2.02,1.45,4.26,3.17,6.36,3.48c2.48,0.37,5.42-0.84,7.83-2.02c3.41-1.68,6.29-4.83,9.81-5.72c3.1-0.79,5.96-2.3,9.4-2.59
	c7.31-0.61,10.93,3.85,14.99,8.42c3.19,3.59,2.94,8.07,3.42,12.2c0.57,4.99,1.06,10.14,0.05,15.14c-0.82,4.06-1.29,8.17-2.25,12.23
	c-1.07,4.53-1.74,9.25-2.45,13.91c-0.47,3.1-2.78,5.39-3.09,8.56c-0.21,2.2-1.23,4.32-1.89,6.48c-2.34,7.59-4.05,15.42-11.14,20.58
	c-1.77,1.29-2.98,0.51-4.41,0.39c-3.46-0.27-6.77-1.8-7.63-5.08c-0.64-2.43-1.27-4.97-1.86-7.46c-0.81-3.42-0.6-7.02-1.49-10.3
	c-0.73-2.73-0.27-5.96-2.78-8.27c-2.62-2.41-4.94-1.4-6.29,0.83c-1.94,3.21-3.19,6.73-4.41,10.18c-0.96,2.7-0.42,5.89-0.98,8.78
	c-0.9,4.65-2.4,9.17-6.62,11.96C30.76,99.5,28.89,99.02,27.3,99.03z M82.49,10.14c0.38-1.44-0.43-2.47-1.36-3.32
	c-3.88-3.56-8.44-4.69-13.38-2.9c-6.21,2.25-11.3,6.82-17.74,8.74c1.91,0.71,3.78,1.07,5.55,1.7c0.78,0.28,2.3,0.14,2.03,1.66
	c-0.3,1.67-1.82,1.48-2.86,1.25c-7.86-1.75-15.51-3.98-21.83-9.36c-1.89-1.61-3.92-3.12-6.56-3.39c-3.55-0.74-6.87-0.43-10.48,0.63
	C8.66,7.26,5.38,12.53,4.12,18.98c-1.09,5.61-0.81,11.56,0.57,17.19c1.37,5.58,3.3,11.02,4.79,16.58c1.28,4.79,2.07,9.68,3.41,14.46
	c2.54,9.05,3.28,18.73,10.14,26.15c1.83,1.98,6.8,2.85,8.38,0.79c2.39-3.1,3.44-6.69,3.93-10.61c0.35-2.75-0.12-5.53,1.3-8.35
	c1.49-2.96,2.59-6.13,4.28-9.07c1.69-2.93,4.74-4.88,8.72-4.67c1.47,0.08,4.94,3.62,5.52,5.54c0.97,3.22,1.58,6.51,2.01,9.84
	c0.51,4.04,1.62,8,2.17,11.98c0.38,2.74,1.72,3.98,3.62,4.96c1.67,0.86,4.09,1.29,5.19-0.47c1.76-2.81,4.57-5.12,4.97-8.66
	c0.34-2.98,2.39-5.25,2.99-8.13c0.76-3.61,2.21-7.1,2.7-10.73c0.3-2.23,2.1-3.6,2.34-5.55c0.66-5.42,1.97-10.72,3.06-16.04
	c1.01-4.94,1.16-9.95,2-14.89c0.46-2.72-0.29-5.57-0.78-8.21C84.74,17.42,85.45,13.24,82.49,10.14z"/>
<path class="st1" d="M82.49,10.14c2.95,3.1,2.25,7.28,2.93,10.96c0.49,2.65,1.25,5.5,0.78,8.21c-0.84,4.94-1,9.95-2,14.89
	c-1.09,5.32-2.4,10.62-3.06,16.04c-0.24,1.94-2.03,3.32-2.34,5.55c-0.49,3.63-1.94,7.12-2.7,10.73c-0.6,2.88-2.66,5.15-2.99,8.13
	c-0.4,3.54-3.2,5.85-4.97,8.66c-1.11,1.76-3.52,1.33-5.19,0.47c-1.9-0.98-3.24-2.22-3.62-4.96c-0.55-3.98-1.66-7.94-2.17-11.98
	c-0.42-3.33-1.04-6.62-2.01-9.84c-0.58-1.92-4.04-5.47-5.52-5.54c-3.98-0.21-7.03,1.75-8.72,4.67c-1.69,2.94-2.79,6.1-4.28,9.07
	c-1.42,2.82-0.95,5.6-1.3,8.35c-0.49,3.92-1.54,7.52-3.93,10.61c-1.59,2.06-6.55,1.2-8.38-0.79c-6.86-7.42-7.6-17.1-10.14-26.15
	c-1.34-4.78-2.12-9.67-3.41-14.46c-1.49-5.56-3.42-11-4.79-16.58c-1.38-5.63-1.67-11.58-0.57-17.19C5.38,12.53,8.66,7.26,15.87,5.15
	c3.61-1.06,6.92-1.37,10.48-0.63c0.08,1.51,1.78,2.06,1.99,3.62c0.24,1.76,1.54,2.97,3.13,3.85c1.45,0.8,2.74,1.57,2.89,3.69
	c0.07,0.98,0.27,2.37,1.18,3.4c3.64,4.13,10.4,4.63,13.34,0.03c0.35-0.54,0.92-1.25,1.44-0.47c0.7,1.05,1.9,1.24,2.72,2.03
	c4.26,4.1,13.15,0.98,14.82-3.99c0.48-1.43,0.94-3.85,3.6-3.02C76.66,15.29,79.08,14.53,82.49,10.14z M52.46,35.62
	c0.75-0.81,0.28-1.7-0.16-2.21c-2.83-3.25-6.76-2.87-9.22,0.79c-0.83,1.24,0.35,4.46,1.59,4.1c2.1-0.62,4.06,0.69,6.07-0.16
	C51.94,37.62,53.14,37.32,52.46,35.62z M24.15,27.37c-0.12,2.72,1.41,3.35,3.22,3.54c1.5,0.16,2.93-1.95,2.87-4.13
	c-0.06-2.1-1.49-3.25-3.27-3.15C24.62,23.76,24.41,25.95,24.15,27.37z M63.86,30.95c2.92,0.06,4.24-1.25,4.3-3.85
	c0.04-1.87-1.23-2.92-2.93-3.3c-0.98-0.22-3.6,2.57-3.31,3.66C62.3,28.91,62.37,30.8,63.86,30.95z"/>
<path class="st2" d="M82.49,10.14c-3.41,4.39-5.83,5.14-11.03,3.53c-2.66-0.83-3.12,1.59-3.6,3.02c-1.67,4.97-10.56,8.09-14.82,3.99
	c-0.82-0.79-2.03-0.98-2.72-2.03c-0.52-0.78-1.09-0.08-1.44,0.47c-2.94,4.6-9.7,4.1-13.34-0.03c-0.91-1.03-1.11-2.42-1.18-3.4
	c-0.15-2.12-1.44-2.89-2.89-3.69c-1.58-0.88-2.89-2.09-3.13-3.85c-0.21-1.56-1.91-2.11-1.99-3.62c2.63,0.27,4.67,1.78,6.56,3.39
	c6.32,5.39,13.98,7.62,21.83,9.36c1.04,0.23,2.56,0.42,2.86-1.25c0.27-1.52-1.25-1.38-2.03-1.66c-1.77-0.63-3.63-0.99-5.55-1.7
	c6.44-1.92,11.53-6.49,17.74-8.74c4.94-1.79,9.5-0.66,13.38,2.9C82.07,7.68,82.87,8.7,82.49,10.14z"/>
<path class="st0" d="M52.46,35.62c0.68,1.7-0.52,2-1.73,2.52c-2.01,0.85-3.97-0.45-6.07,0.16c-1.24,0.36-2.43-2.85-1.59-4.1
	c2.46-3.66,6.4-4.04,9.22-0.79C52.73,33.92,53.21,34.81,52.46,35.62z"/>
<path class="st0" d="M24.15,27.37c0.26-1.41,0.47-3.6,2.83-3.74c1.78-0.1,3.21,1.05,3.27,3.15c0.06,2.18-1.37,4.29-2.87,4.13
	C25.57,30.72,24.03,30.09,24.15,27.37z"/>
<path class="st0" d="M63.86,30.95c-1.49-0.14-1.56-2.04-1.94-3.49c-0.29-1.09,2.33-3.88,3.31-3.66c1.7,0.39,2.97,1.43,2.93,3.3
	C68.1,29.69,66.77,31,63.86,30.95z"/>
</svg>
